<svg width="547" height="362" viewBox="0 0 547 362" fill="none" xmlns="http://www.w3.org/2000/svg">
<g clip-path="url(#clip0_1_8413)">
<rect width="547" height="362" rx="30" fill="#F5F5F5"/>
<path opacity="0.7" d="M475.231 360.673H501.847" stroke="#2FDBBC" stroke-width="159.698" stroke-linecap="round"/>
<path d="M507.382 326.009C506.016 330.512 496.04 335.845 489.908 332.842" stroke="black" stroke-width="2.66164" stroke-linecap="round" stroke-linejoin="round"/>
<circle cx="471.904" cy="321.414" r="3.32705" fill="black"/>
<circle cx="499.851" cy="316.09" r="3.32705" fill="black"/>
<path d="M366.743 318.763C387.121 318.798 386.542 332.569 364.297 327.272C370.808 329.089 380.713 331.171 377.678 336.274C374.642 341.376 362.946 335.938 362.946 335.938C371.204 340.442 373.361 343.851 370.512 346.323C369.266 347.403 367.14 347.827 364.672 347.63M423.304 345.337C396.67 358.138 390.152 338.158 388.065 328.557C385.977 318.956 393.23 291.367 383.977 289.984C376.535 288.872 374.22 298.301 374.802 313.049C370.695 311.133 352.25 311.152 348.15 327.398C345.015 339.82 356.653 346.993 364.672 347.63M418.591 378.449C395.177 383.516 373.318 375.738 364.672 347.63" stroke="black" stroke-width="2.66164" stroke-linecap="round" stroke-linejoin="round"/>
<path d="M53.248 88.48C50.528 88.48 48.192 88.016 46.24 87.088C44.32 86.16 42.576 84.768 41.008 82.912L45.328 78.592C46.32 79.904 47.472 80.928 48.784 81.664C50.096 82.368 51.696 82.72 53.584 82.72C55.28 82.72 56.624 82.384 57.616 81.712C58.64 81.04 59.152 80.112 59.152 78.928C59.152 77.904 58.864 77.072 58.288 76.432C57.712 75.792 56.944 75.248 55.984 74.8C55.056 74.352 54.016 73.952 52.864 73.6C51.744 73.216 50.608 72.784 49.456 72.304C48.336 71.824 47.296 71.232 46.336 70.528C45.408 69.792 44.656 68.864 44.08 67.744C43.504 66.592 43.216 65.152 43.216 63.424C43.216 61.376 43.712 59.632 44.704 58.192C45.696 56.752 47.056 55.648 48.784 54.88C50.512 54.112 52.464 53.728 54.64 53.728C56.944 53.728 59.024 54.16 60.88 55.024C62.736 55.888 64.256 57.008 65.44 58.384L61.12 62.704C60.128 61.616 59.104 60.816 58.048 60.304C57.024 59.792 55.856 59.536 54.544 59.536C53.04 59.536 51.856 59.824 50.992 60.4C50.128 60.976 49.696 61.808 49.696 62.896C49.696 63.824 49.984 64.576 50.56 65.152C51.136 65.728 51.888 66.224 52.816 66.64C53.776 67.056 54.816 67.456 55.936 67.84C57.088 68.224 58.224 68.656 59.344 69.136C60.496 69.616 61.536 70.24 62.464 71.008C63.424 71.776 64.192 72.768 64.768 73.984C65.344 75.168 65.632 76.64 65.632 78.4C65.632 81.536 64.528 84 62.32 85.792C60.112 87.584 57.088 88.48 53.248 88.48ZM80.0001 88.48C77.9521 88.48 76.1281 88.048 74.5281 87.184C72.9601 86.32 71.7281 85.12 70.8321 83.584C69.9361 82.048 69.4881 80.272 69.4881 78.256V64.816H75.8241V78.112C75.8241 79.072 75.9841 79.904 76.3041 80.608C76.6241 81.28 77.1041 81.792 77.7441 82.144C78.3841 82.496 79.1361 82.672 80.0001 82.672C81.3121 82.672 82.3361 82.272 83.0721 81.472C83.8081 80.672 84.1761 79.552 84.1761 78.112V64.816H90.4641V78.256C90.4641 80.304 90.0161 82.096 89.1201 83.632C88.2561 85.168 87.0241 86.368 85.4241 87.232C83.8561 88.064 82.0481 88.48 80.0001 88.48ZM108.336 88.48C106.672 88.48 105.168 88.144 103.824 87.472C102.48 86.768 101.408 85.824 100.608 84.64C99.8075 83.456 99.3755 82.096 99.3115 80.56V72.352C99.3755 70.816 99.8075 69.456 100.608 68.272C101.44 67.056 102.512 66.096 103.824 65.392C105.168 64.688 106.672 64.336 108.336 64.336C110.48 64.336 112.4 64.864 114.096 65.92C115.792 66.976 117.12 68.416 118.08 70.24C119.072 72.064 119.568 74.128 119.568 76.432C119.568 78.704 119.072 80.752 118.08 82.576C117.12 84.4 115.792 85.84 114.096 86.896C112.4 87.952 110.48 88.48 108.336 88.48ZM107.232 82.672C108.384 82.672 109.408 82.416 110.304 81.904C111.2 81.36 111.888 80.624 112.368 79.696C112.88 78.736 113.136 77.632 113.136 76.384C113.136 75.168 112.88 74.096 112.368 73.168C111.888 72.208 111.2 71.472 110.304 70.96C109.408 70.416 108.384 70.144 107.232 70.144C106.112 70.144 105.104 70.416 104.208 70.96C103.312 71.472 102.608 72.208 102.096 73.168C101.616 74.096 101.376 75.168 101.376 76.384C101.376 77.632 101.616 78.736 102.096 79.696C102.608 80.624 103.296 81.36 104.16 81.904C105.056 82.416 106.08 82.672 107.232 82.672ZM95.4715 97.696V64.816H101.76V70.912L100.704 76.528L101.712 82.144V97.696H95.4715ZM134.778 88.48C132.346 88.48 130.186 87.968 128.298 86.944C126.41 85.888 124.906 84.448 123.786 82.624C122.698 80.8 122.154 78.72 122.154 76.384C122.154 74.08 122.682 72.032 123.738 70.24C124.826 68.416 126.298 66.976 128.154 65.92C130.01 64.832 132.074 64.288 134.346 64.288C136.586 64.288 138.554 64.8 140.25 65.824C141.978 66.816 143.322 68.192 144.282 69.952C145.274 71.68 145.77 73.648 145.77 75.856C145.77 76.272 145.738 76.704 145.674 77.152C145.642 77.568 145.562 78.048 145.434 78.592L125.946 78.64V73.936L142.506 73.888L139.962 75.856C139.898 74.48 139.642 73.328 139.194 72.4C138.778 71.472 138.154 70.768 137.322 70.288C136.522 69.776 135.53 69.52 134.346 69.52C133.098 69.52 132.01 69.808 131.082 70.384C130.154 70.928 129.434 71.712 128.922 72.736C128.442 73.728 128.202 74.912 128.202 76.288C128.202 77.696 128.458 78.928 128.97 79.984C129.514 81.008 130.282 81.808 131.274 82.384C132.266 82.928 133.418 83.2 134.73 83.2C135.914 83.2 136.986 83.008 137.946 82.624C138.906 82.208 139.738 81.6 140.442 80.8L144.138 84.496C143.018 85.808 141.642 86.8 140.01 87.472C138.41 88.144 136.666 88.48 134.778 88.48ZM149.659 88V64.816H155.947V88H149.659ZM155.947 75.184L153.499 73.552C153.787 70.704 154.619 68.464 155.995 66.832C157.371 65.168 159.355 64.336 161.947 64.336C163.067 64.336 164.075 64.528 164.971 64.912C165.867 65.264 166.683 65.856 167.419 66.688L163.483 71.2C163.131 70.816 162.699 70.528 162.187 70.336C161.707 70.144 161.147 70.048 160.507 70.048C159.163 70.048 158.059 70.48 157.195 71.344C156.363 72.176 155.947 73.456 155.947 75.184ZM179.916 88.48C177.548 88.48 175.42 87.952 173.532 86.896C171.644 85.84 170.156 84.4 169.068 82.576C167.98 80.752 167.436 78.704 167.436 76.432C167.436 74.128 167.98 72.064 169.068 70.24C170.156 68.416 171.644 66.976 173.532 65.92C175.452 64.832 177.58 64.288 179.916 64.288C181.74 64.288 183.42 64.624 184.956 65.296C186.492 65.968 187.82 66.928 188.94 68.176L184.908 72.256C184.3 71.584 183.564 71.072 182.7 70.72C181.868 70.368 180.94 70.192 179.916 70.192C178.764 70.192 177.724 70.464 176.796 71.008C175.9 71.52 175.18 72.24 174.636 73.168C174.124 74.064 173.868 75.136 173.868 76.384C173.868 77.6 174.124 78.688 174.636 79.648C175.18 80.576 175.9 81.312 176.796 81.856C177.724 82.368 178.764 82.624 179.916 82.624C180.972 82.624 181.916 82.448 182.748 82.096C183.612 81.712 184.348 81.168 184.956 80.464L189.036 84.544C187.852 85.824 186.492 86.8 184.956 87.472C183.42 88.144 181.74 88.48 179.916 88.48ZM208.197 88V74.704C208.197 73.328 207.765 72.208 206.901 71.344C206.037 70.48 204.917 70.048 203.541 70.048C202.645 70.048 201.845 70.24 201.141 70.624C200.437 71.008 199.877 71.552 199.461 72.256C199.077 72.96 198.885 73.776 198.885 74.704L196.437 73.456C196.437 71.632 196.821 70.048 197.589 68.704C198.357 67.328 199.413 66.256 200.757 65.488C202.133 64.72 203.701 64.336 205.461 64.336C207.221 64.336 208.773 64.72 210.117 65.488C211.493 66.256 212.565 67.312 213.333 68.656C214.101 70 214.484 71.552 214.484 73.312V88H208.197ZM192.597 88V53.296H198.885V88H192.597ZM229.246 88.48C227.134 88.48 225.23 87.952 223.534 86.896C221.838 85.84 220.51 84.4 219.55 82.576C218.59 80.752 218.11 78.704 218.11 76.432C218.11 74.128 218.59 72.064 219.55 70.24C220.51 68.416 221.838 66.976 223.534 65.92C225.23 64.864 227.134 64.336 229.246 64.336C230.91 64.336 232.398 64.672 233.71 65.344C235.022 66.016 236.062 66.96 236.83 68.176C237.63 69.36 238.062 70.704 238.126 72.208V80.56C238.062 82.096 237.63 83.456 236.83 84.64C236.062 85.824 235.022 86.768 233.71 87.472C232.398 88.144 230.91 88.48 229.246 88.48ZM230.398 82.672C232.158 82.672 233.582 82.096 234.67 80.944C235.758 79.76 236.302 78.24 236.302 76.384C236.302 75.168 236.046 74.096 235.534 73.168C235.054 72.208 234.366 71.472 233.47 70.96C232.606 70.416 231.582 70.144 230.398 70.144C229.246 70.144 228.222 70.416 227.326 70.96C226.462 71.472 225.774 72.208 225.262 73.168C224.782 74.096 224.542 75.168 224.542 76.384C224.542 77.632 224.782 78.736 225.262 79.696C225.774 80.624 226.462 81.36 227.326 81.904C228.222 82.416 229.246 82.672 230.398 82.672ZM235.966 88V81.76L236.974 76.096L235.966 70.528V64.816H242.206V88H235.966ZM247.768 88V64.816H254.056V88H247.768ZM254.056 75.184L251.608 73.552C251.896 70.704 252.728 68.464 254.104 66.832C255.48 65.168 257.464 64.336 260.056 64.336C261.176 64.336 262.184 64.528 263.08 64.912C263.976 65.264 264.792 65.856 265.528 66.688L261.592 71.2C261.24 70.816 260.808 70.528 260.296 70.336C259.816 70.144 259.256 70.048 258.616 70.048C257.272 70.048 256.168 70.48 255.304 71.344C254.472 72.176 254.056 73.456 254.056 75.184ZM276.777 98.272C274.313 98.272 272.137 97.824 270.249 96.928C268.361 96.064 266.857 94.832 265.737 93.232L269.721 89.248C270.617 90.304 271.609 91.104 272.697 91.648C273.817 92.224 275.161 92.512 276.729 92.512C278.681 92.512 280.217 92.016 281.337 91.024C282.489 90.032 283.065 88.656 283.065 86.896V81.088L284.121 76L283.113 70.912V64.816H289.353V86.8C289.353 89.104 288.809 91.104 287.721 92.8C286.665 94.528 285.193 95.872 283.305 96.832C281.417 97.792 279.241 98.272 276.777 98.272ZM276.489 87.376C274.409 87.376 272.537 86.88 270.873 85.888C269.209 84.864 267.897 83.472 266.937 81.712C266.009 79.952 265.545 77.984 265.545 75.808C265.545 73.632 266.009 71.68 266.937 69.952C267.897 68.224 269.209 66.864 270.873 65.872C272.537 64.848 274.409 64.336 276.489 64.336C278.217 64.336 279.737 64.672 281.049 65.344C282.393 66.016 283.449 66.944 284.217 68.128C284.985 69.28 285.401 70.64 285.465 72.208V79.504C285.401 81.04 284.969 82.416 284.169 83.632C283.401 84.816 282.345 85.744 281.001 86.416C279.689 87.056 278.185 87.376 276.489 87.376ZM277.737 81.664C278.889 81.664 279.881 81.424 280.713 80.944C281.577 80.432 282.249 79.744 282.729 78.88C283.209 77.984 283.449 76.976 283.449 75.856C283.449 74.704 283.209 73.696 282.729 72.832C282.249 71.968 281.577 71.296 280.713 70.816C279.881 70.304 278.889 70.048 277.737 70.048C276.585 70.048 275.577 70.304 274.713 70.816C273.849 71.296 273.177 71.984 272.697 72.88C272.217 73.744 271.977 74.736 271.977 75.856C271.977 76.944 272.217 77.936 272.697 78.832C273.177 79.696 273.849 80.384 274.713 80.896C275.577 81.408 276.585 81.664 277.737 81.664ZM305.966 88.48C303.534 88.48 301.374 87.968 299.486 86.944C297.598 85.888 296.094 84.448 294.974 82.624C293.886 80.8 293.342 78.72 293.342 76.384C293.342 74.08 293.87 72.032 294.926 70.24C296.014 68.416 297.486 66.976 299.342 65.92C301.198 64.832 303.262 64.288 305.534 64.288C307.774 64.288 309.742 64.8 311.438 65.824C313.166 66.816 314.51 68.192 315.47 69.952C316.462 71.68 316.958 73.648 316.958 75.856C316.958 76.272 316.926 76.704 316.862 77.152C316.83 77.568 316.75 78.048 316.622 78.592L297.134 78.64V73.936L313.694 73.888L311.15 75.856C311.086 74.48 310.83 73.328 310.382 72.4C309.966 71.472 309.342 70.768 308.51 70.288C307.71 69.776 306.718 69.52 305.534 69.52C304.286 69.52 303.198 69.808 302.27 70.384C301.342 70.928 300.622 71.712 300.11 72.736C299.63 73.728 299.39 74.912 299.39 76.288C299.39 77.696 299.646 78.928 300.158 79.984C300.702 81.008 301.47 81.808 302.462 82.384C303.454 82.928 304.606 83.2 305.918 83.2C307.102 83.2 308.174 83.008 309.134 82.624C310.094 82.208 310.926 81.6 311.63 80.8L315.326 84.496C314.206 85.808 312.83 86.8 311.198 87.472C309.598 88.144 307.854 88.48 305.966 88.48ZM43.456 148V114.256H49.984V148H43.456ZM48.256 148V142.192H65.44V148H48.256ZM79.7425 148.48C77.4065 148.48 75.2945 147.952 73.4065 146.896C71.5505 145.808 70.0625 144.352 68.9425 142.528C67.8545 140.672 67.3105 138.608 67.3105 136.336C67.3105 134.064 67.8545 132.032 68.9425 130.24C70.0305 128.416 71.5185 126.976 73.4065 125.92C75.2945 124.832 77.3905 124.288 79.6945 124.288C82.0625 124.288 84.1745 124.832 86.0305 125.92C87.9185 126.976 89.4065 128.416 90.4945 130.24C91.5825 132.032 92.1265 134.064 92.1265 136.336C92.1265 138.608 91.5825 140.672 90.4945 142.528C89.4065 144.352 87.9185 145.808 86.0305 146.896C84.1745 147.952 82.0785 148.48 79.7425 148.48ZM79.6945 142.624C80.8785 142.624 81.9185 142.368 82.8145 141.856C83.7425 141.312 84.4465 140.576 84.9265 139.648C85.4385 138.688 85.6945 137.6 85.6945 136.384C85.6945 135.168 85.4385 134.096 84.9265 133.168C84.4145 132.24 83.7105 131.52 82.8145 131.008C81.9185 130.464 80.8785 130.192 79.6945 130.192C78.5425 130.192 77.5185 130.464 76.6225 131.008C75.7265 131.52 75.0225 132.24 74.5105 133.168C73.9985 134.096 73.7425 135.168 73.7425 136.384C73.7425 137.6 73.9985 138.688 74.5105 139.648C75.0225 140.576 75.7265 141.312 76.6225 141.856C77.5185 142.368 78.5425 142.624 79.6945 142.624ZM102.768 148.192L93.0715 124.816H99.8875L106.32 142.672H104.016L110.688 124.816H117.552L107.232 148.144L102.768 148.192ZM96.3355 157.696L103.392 142.768L107.232 148.144L103.008 157.696H96.3355ZM129.402 148.48C127.29 148.48 125.386 147.952 123.69 146.896C121.994 145.84 120.666 144.4 119.706 142.576C118.746 140.752 118.266 138.704 118.266 136.432C118.266 134.128 118.746 132.064 119.706 130.24C120.666 128.416 121.994 126.976 123.69 125.92C125.386 124.864 127.29 124.336 129.402 124.336C131.066 124.336 132.554 124.672 133.866 125.344C135.178 126.016 136.218 126.96 136.986 128.176C137.786 129.36 138.218 130.704 138.282 132.208V140.56C138.218 142.096 137.786 143.456 136.986 144.64C136.218 145.824 135.178 146.768 133.866 147.472C132.554 148.144 131.066 148.48 129.402 148.48ZM130.554 142.672C132.314 142.672 133.738 142.096 134.826 140.944C135.914 139.76 136.458 138.24 136.458 136.384C136.458 135.168 136.202 134.096 135.69 133.168C135.21 132.208 134.522 131.472 133.626 130.96C132.762 130.416 131.738 130.144 130.554 130.144C129.402 130.144 128.378 130.416 127.482 130.96C126.618 131.472 125.93 132.208 125.418 133.168C124.938 134.096 124.698 135.168 124.698 136.384C124.698 137.632 124.938 138.736 125.418 139.696C125.93 140.624 126.618 141.36 127.482 141.904C128.378 142.416 129.402 142.672 130.554 142.672ZM136.122 148V141.76L137.13 136.096L136.122 130.528V124.816H142.362V148H136.122ZM147.925 148V113.296H154.213V148H147.925ZM163.192 148V115.168H169.48V148H163.192ZM157.768 130.336V124.816H174.904V130.336H157.768ZM185.736 148.192L176.04 124.816H182.856L189.288 142.672H186.984L193.656 124.816H200.52L190.2 148.144L185.736 148.192ZM179.304 157.696L186.36 142.768L190.2 148.144L185.976 157.696H179.304ZM222.297 148L211.353 114.256H217.785L225.897 140.224H223.737L231.705 114.256H236.553L244.521 140.224H242.313L250.473 114.256H256.905L245.913 148H241.065L233.049 122.08H235.161L227.193 148H222.297ZM260.706 148V124.816H267.042V148H260.706ZM263.874 121.072C262.85 121.072 262.002 120.736 261.33 120.064C260.658 119.36 260.322 118.496 260.322 117.472C260.322 116.48 260.658 115.632 261.33 114.928C262.002 114.224 262.85 113.872 263.874 113.872C264.93 113.872 265.778 114.224 266.418 114.928C267.09 115.632 267.426 116.48 267.426 117.472C267.426 118.496 267.09 119.36 266.418 120.064C265.778 120.736 264.93 121.072 263.874 121.072ZM276.02 148V115.168H282.308V148H276.02ZM270.596 130.336V124.816H287.732V130.336H270.596ZM306.868 148V134.704C306.868 133.328 306.436 132.208 305.572 131.344C304.708 130.48 303.588 130.048 302.212 130.048C301.316 130.048 300.516 130.24 299.812 130.624C299.108 131.008 298.548 131.552 298.132 132.256C297.748 132.96 297.556 133.776 297.556 134.704L295.108 133.456C295.108 131.632 295.492 130.048 296.26 128.704C297.028 127.328 298.084 126.256 299.428 125.488C300.804 124.72 302.372 124.336 304.132 124.336C305.892 124.336 307.444 124.72 308.788 125.488C310.164 126.256 311.236 127.312 312.004 128.656C312.772 130 313.156 131.552 313.156 133.312V148H306.868ZM291.268 148V113.296H297.556V148H291.268ZM328.269 148V114.256H334.797V148H328.269ZM356.65 148V134.704C356.65 133.328 356.218 132.208 355.354 131.344C354.49 130.48 353.37 130.048 351.994 130.048C351.098 130.048 350.298 130.24 349.594 130.624C348.89 131.008 348.33 131.552 347.914 132.256C347.53 132.96 347.338 133.776 347.338 134.704L344.89 133.456C344.89 131.632 345.274 130.048 346.042 128.704C346.842 127.328 347.93 126.256 349.306 125.488C350.714 124.72 352.298 124.336 354.058 124.336C355.754 124.336 357.274 124.768 358.618 125.632C359.962 126.464 361.018 127.568 361.786 128.944C362.554 130.288 362.938 131.744 362.938 133.312V148H356.65ZM341.05 148V124.816H347.338V148H341.05ZM375.971 148.528C374.659 148.528 373.363 148.352 372.083 148C370.835 147.648 369.683 147.168 368.627 146.56C367.571 145.92 366.659 145.152 365.891 144.256L369.635 140.464C370.435 141.36 371.363 142.032 372.419 142.48C373.475 142.928 374.643 143.152 375.923 143.152C376.947 143.152 377.715 143.008 378.227 142.72C378.771 142.432 379.043 142 379.043 141.424C379.043 140.784 378.755 140.288 378.179 139.936C377.635 139.584 376.915 139.296 376.019 139.072C375.123 138.816 374.179 138.544 373.187 138.256C372.227 137.936 371.299 137.536 370.403 137.056C369.507 136.544 368.771 135.856 368.195 134.992C367.651 134.096 367.379 132.944 367.379 131.536C367.379 130.064 367.731 128.784 368.435 127.696C369.171 126.608 370.211 125.76 371.555 125.152C372.899 124.544 374.483 124.24 376.307 124.24C378.227 124.24 379.955 124.576 381.491 125.248C383.059 125.92 384.355 126.928 385.379 128.272L381.587 132.064C380.883 131.2 380.083 130.576 379.187 130.192C378.323 129.808 377.379 129.616 376.355 129.616C375.427 129.616 374.707 129.76 374.195 130.048C373.715 130.336 373.475 130.736 373.475 131.248C373.475 131.824 373.747 132.272 374.291 132.592C374.867 132.912 375.603 133.2 376.499 133.456C377.395 133.68 378.323 133.952 379.283 134.272C380.275 134.56 381.203 134.976 382.067 135.52C382.963 136.064 383.683 136.784 384.227 137.68C384.803 138.576 385.091 139.728 385.091 141.136C385.091 143.408 384.275 145.216 382.643 146.56C381.011 147.872 378.787 148.528 375.971 148.528ZM392.739 148V115.168H399.027V148H392.739ZM387.315 130.336V124.816H404.451V130.336H387.315ZM417.121 148.48C415.009 148.48 413.105 147.952 411.409 146.896C409.713 145.84 408.385 144.4 407.425 142.576C406.465 140.752 405.985 138.704 405.985 136.432C405.985 134.128 406.465 132.064 407.425 130.24C408.385 128.416 409.713 126.976 411.409 125.92C413.105 124.864 415.009 124.336 417.121 124.336C418.785 124.336 420.273 124.672 421.585 125.344C422.897 126.016 423.937 126.96 424.705 128.176C425.505 129.36 425.937 130.704 426.001 132.208V140.56C425.937 142.096 425.505 143.456 424.705 144.64C423.937 145.824 422.897 146.768 421.585 147.472C420.273 148.144 418.785 148.48 417.121 148.48ZM418.273 142.672C420.033 142.672 421.457 142.096 422.545 140.944C423.633 139.76 424.177 138.24 424.177 136.384C424.177 135.168 423.921 134.096 423.409 133.168C422.929 132.208 422.241 131.472 421.345 130.96C420.481 130.416 419.457 130.144 418.273 130.144C417.121 130.144 416.097 130.416 415.201 130.96C414.337 131.472 413.649 132.208 413.137 133.168C412.657 134.096 412.417 135.168 412.417 136.384C412.417 137.632 412.657 138.736 413.137 139.696C413.649 140.624 414.337 141.36 415.201 141.904C416.097 142.416 417.121 142.672 418.273 142.672ZM423.841 148V141.76L424.849 136.096L423.841 130.528V124.816H430.081V148H423.841ZM451.243 148V134.704C451.243 133.328 450.811 132.208 449.947 131.344C449.083 130.48 447.963 130.048 446.587 130.048C445.691 130.048 444.891 130.24 444.187 130.624C443.483 131.008 442.923 131.552 442.507 132.256C442.123 132.96 441.931 133.776 441.931 134.704L439.483 133.456C439.483 131.632 439.867 130.048 440.635 128.704C441.435 127.328 442.523 126.256 443.899 125.488C445.307 124.72 446.891 124.336 448.651 124.336C450.347 124.336 451.867 124.768 453.211 125.632C454.555 126.464 455.611 127.568 456.379 128.944C457.147 130.288 457.531 131.744 457.531 133.312V148H451.243ZM435.643 148V124.816H441.931V148H435.643ZM465.723 148V115.168H472.011V148H465.723ZM460.299 130.336V124.816H477.435V130.336H460.299ZM59.104 208.48C56.64 208.48 54.352 208.048 52.24 207.184C50.128 206.288 48.272 205.056 46.672 203.488C45.104 201.888 43.888 200.032 43.024 197.92C42.192 195.808 41.776 193.536 41.776 191.104C41.776 188.672 42.192 186.4 43.024 184.288C43.888 182.176 45.104 180.336 46.672 178.768C48.272 177.2 50.112 175.968 52.192 175.072C54.304 174.176 56.608 173.728 59.104 173.728C61.792 173.728 64.16 174.176 66.208 175.072C68.256 175.936 70.064 177.136 71.632 178.672L67.216 183.088C66.288 182.064 65.152 181.264 63.808 180.688C62.464 180.112 60.896 179.824 59.104 179.824C57.536 179.824 56.096 180.096 54.784 180.64C53.504 181.152 52.384 181.92 51.424 182.944C50.464 183.936 49.728 185.136 49.216 186.544C48.704 187.92 48.448 189.44 48.448 191.104C48.448 192.8 48.704 194.336 49.216 195.712C49.728 197.088 50.464 198.288 51.424 199.312C52.384 200.304 53.504 201.072 54.784 201.616C56.096 202.16 57.536 202.432 59.104 202.432C60.992 202.432 62.608 202.144 63.952 201.568C65.328 200.992 66.48 200.176 67.408 199.12L71.824 203.536C70.256 205.104 68.432 206.32 66.352 207.184C64.272 208.048 61.856 208.48 59.104 208.48ZM84.7769 208.48C82.6649 208.48 80.7609 207.952 79.0649 206.896C77.3689 205.84 76.0409 204.4 75.0809 202.576C74.1209 200.752 73.6409 198.704 73.6409 196.432C73.6409 194.128 74.1209 192.064 75.0809 190.24C76.0409 188.416 77.3689 186.976 79.0649 185.92C80.7609 184.864 82.6649 184.336 84.7769 184.336C86.4409 184.336 87.9289 184.672 89.2409 185.344C90.5529 186.016 91.5929 186.96 92.3609 188.176C93.1609 189.36 93.5929 190.704 93.6569 192.208V200.56C93.5929 202.096 93.1609 203.456 92.3609 204.64C91.5929 205.824 90.5529 206.768 89.2409 207.472C87.9289 208.144 86.4409 208.48 84.7769 208.48ZM85.9289 202.672C87.6889 202.672 89.1129 202.096 90.2009 200.944C91.2889 199.76 91.8329 198.24 91.8329 196.384C91.8329 195.168 91.5769 194.096 91.0649 193.168C90.5849 192.208 89.8969 191.472 89.0009 190.96C88.1369 190.416 87.1129 190.144 85.9289 190.144C84.7769 190.144 83.7529 190.416 82.8569 190.96C81.9929 191.472 81.3049 192.208 80.7929 193.168C80.3129 194.096 80.0729 195.168 80.0729 196.384C80.0729 197.632 80.3129 198.736 80.7929 199.696C81.3049 200.624 81.9929 201.36 82.8569 201.904C83.7529 202.416 84.7769 202.672 85.9289 202.672ZM91.4969 208V201.76L92.5049 196.096L91.4969 190.528V184.816H97.7369V208H91.4969ZM111.268 208.528C109.956 208.528 108.66 208.352 107.38 208C106.132 207.648 104.98 207.168 103.924 206.56C102.868 205.92 101.956 205.152 101.188 204.256L104.932 200.464C105.732 201.36 106.66 202.032 107.716 202.48C108.772 202.928 109.94 203.152 111.22 203.152C112.244 203.152 113.012 203.008 113.524 202.72C114.068 202.432 114.34 202 114.34 201.424C114.34 200.784 114.052 200.288 113.476 199.936C112.932 199.584 112.212 199.296 111.316 199.072C110.42 198.816 109.476 198.544 108.484 198.256C107.524 197.936 106.596 197.536 105.7 197.056C104.804 196.544 104.068 195.856 103.492 194.992C102.948 194.096 102.676 192.944 102.676 191.536C102.676 190.064 103.028 188.784 103.732 187.696C104.468 186.608 105.508 185.76 106.852 185.152C108.196 184.544 109.78 184.24 111.604 184.24C113.524 184.24 115.252 184.576 116.788 185.248C118.356 185.92 119.652 186.928 120.676 188.272L116.884 192.064C116.18 191.2 115.38 190.576 114.484 190.192C113.62 189.808 112.676 189.616 111.652 189.616C110.724 189.616 110.004 189.76 109.492 190.048C109.012 190.336 108.772 190.736 108.772 191.248C108.772 191.824 109.044 192.272 109.588 192.592C110.164 192.912 110.9 193.2 111.796 193.456C112.692 193.68 113.62 193.952 114.58 194.272C115.572 194.56 116.5 194.976 117.364 195.52C118.26 196.064 118.98 196.784 119.524 197.68C120.1 198.576 120.388 199.728 120.388 201.136C120.388 203.408 119.572 205.216 117.94 206.56C116.308 207.872 114.084 208.528 111.268 208.528ZM140.228 208V194.704C140.228 193.328 139.796 192.208 138.932 191.344C138.068 190.48 136.948 190.048 135.572 190.048C134.676 190.048 133.876 190.24 133.172 190.624C132.468 191.008 131.908 191.552 131.492 192.256C131.108 192.96 130.916 193.776 130.916 194.704L128.468 193.456C128.468 191.632 128.852 190.048 129.62 188.704C130.388 187.328 131.444 186.256 132.788 185.488C134.164 184.72 135.732 184.336 137.492 184.336C139.252 184.336 140.804 184.72 142.148 185.488C143.524 186.256 144.596 187.312 145.364 188.656C146.132 190 146.516 191.552 146.516 193.312V208H140.228ZM124.628 208V173.296H130.916V208H124.628ZM166.428 208V202.672H175.212C176.78 202.672 177.996 202.192 178.86 201.232C179.756 200.272 180.204 199.136 180.204 197.824C180.204 196.928 180.012 196.112 179.628 195.376C179.244 194.64 178.668 194.064 177.9 193.648C177.164 193.2 176.268 192.976 175.212 192.976H166.428V187.696H174.492C175.836 187.696 176.908 187.36 177.708 186.688C178.54 186.016 178.956 185.008 178.956 183.664C178.956 182.288 178.54 181.264 177.708 180.592C176.908 179.92 175.836 179.584 174.492 179.584H166.428V174.256H175.26C177.5 174.256 179.372 174.672 180.876 175.504C182.412 176.304 183.564 177.376 184.332 178.72C185.1 180.032 185.484 181.472 185.484 183.04C185.484 184.96 184.892 186.624 183.708 188.032C182.556 189.408 180.86 190.432 178.62 191.104L178.908 188.992C181.404 189.696 183.324 190.864 184.668 192.496C186.044 194.096 186.732 196.032 186.732 198.304C186.732 200.096 186.284 201.728 185.388 203.2C184.524 204.64 183.244 205.808 181.548 206.704C179.884 207.568 177.852 208 175.452 208H166.428ZM161.628 208V174.256H168.108V208H161.628ZM200.933 208.48C198.821 208.48 196.917 207.952 195.221 206.896C193.525 205.84 192.197 204.4 191.237 202.576C190.277 200.752 189.797 198.704 189.797 196.432C189.797 194.128 190.277 192.064 191.237 190.24C192.197 188.416 193.525 186.976 195.221 185.92C196.917 184.864 198.821 184.336 200.933 184.336C202.597 184.336 204.085 184.672 205.397 185.344C206.709 186.016 207.749 186.96 208.517 188.176C209.317 189.36 209.749 190.704 209.813 192.208V200.56C209.749 202.096 209.317 203.456 208.517 204.64C207.749 205.824 206.709 206.768 205.397 207.472C204.085 208.144 202.597 208.48 200.933 208.48ZM202.085 202.672C203.845 202.672 205.269 202.096 206.357 200.944C207.445 199.76 207.989 198.24 207.989 196.384C207.989 195.168 207.733 194.096 207.221 193.168C206.741 192.208 206.053 191.472 205.157 190.96C204.293 190.416 203.269 190.144 202.085 190.144C200.933 190.144 199.909 190.416 199.013 190.96C198.149 191.472 197.461 192.208 196.949 193.168C196.469 194.096 196.229 195.168 196.229 196.384C196.229 197.632 196.469 198.736 196.949 199.696C197.461 200.624 198.149 201.36 199.013 201.904C199.909 202.416 200.933 202.672 202.085 202.672ZM207.653 208V201.76L208.661 196.096L207.653 190.528V184.816H213.893V208H207.653ZM230.4 208.48C228.032 208.48 225.904 207.952 224.016 206.896C222.128 205.84 220.64 204.4 219.552 202.576C218.464 200.752 217.92 198.704 217.92 196.432C217.92 194.128 218.464 192.064 219.552 190.24C220.64 188.416 222.128 186.976 224.016 185.92C225.936 184.832 228.064 184.288 230.4 184.288C232.224 184.288 233.904 184.624 235.44 185.296C236.976 185.968 238.304 186.928 239.424 188.176L235.392 192.256C234.784 191.584 234.048 191.072 233.184 190.72C232.352 190.368 231.424 190.192 230.4 190.192C229.248 190.192 228.208 190.464 227.28 191.008C226.384 191.52 225.664 192.24 225.12 193.168C224.608 194.064 224.352 195.136 224.352 196.384C224.352 197.6 224.608 198.688 225.12 199.648C225.664 200.576 226.384 201.312 227.28 201.856C228.208 202.368 229.248 202.624 230.4 202.624C231.456 202.624 232.4 202.448 233.232 202.096C234.096 201.712 234.832 201.168 235.44 200.464L239.52 204.544C238.336 205.824 236.976 206.8 235.44 207.472C233.904 208.144 232.224 208.48 230.4 208.48ZM257.865 208L248.889 196.048L257.817 184.816H265.065L254.601 197.488L254.841 194.416L265.545 208H257.865ZM243.081 208V173.296H249.369V208H243.081Z" fill="black"/>
<path d="M42.9 259V257.36H47.1C47.9 257.36 48.5267 257.127 48.98 256.66C49.4333 256.18 49.66 255.607 49.66 254.94C49.66 254.487 49.56 254.08 49.36 253.72C49.16 253.347 48.8667 253.053 48.48 252.84C48.1067 252.627 47.6667 252.52 47.16 252.52H42.9V250.88H46.88C47.5467 250.88 48.0733 250.707 48.46 250.36C48.86 250 49.06 249.487 49.06 248.82C49.06 248.153 48.8533 247.647 48.44 247.3C48.0267 246.94 47.48 246.76 46.8 246.76H42.9V245.12H46.84C47.7467 245.12 48.5 245.287 49.1 245.62C49.7133 245.94 50.1733 246.367 50.48 246.9C50.8 247.433 50.96 248.02 50.96 248.66C50.96 249.407 50.7533 250.06 50.34 250.62C49.94 251.18 49.3467 251.62 48.56 251.94L48.72 251.34C49.6133 251.66 50.3067 252.147 50.8 252.8C51.3067 253.44 51.56 254.2 51.56 255.08C51.56 255.813 51.38 256.473 51.02 257.06C50.66 257.647 50.14 258.12 49.46 258.48C48.7933 258.827 47.9733 259 47 259H42.9ZM41.64 259V245.12H43.52V259H41.64ZM57.6009 259.2C56.8276 259.2 56.1276 259.027 55.5009 258.68C54.8876 258.32 54.4076 257.827 54.0609 257.2C53.7143 256.573 53.5409 255.847 53.5409 255.02V249.5H55.3409V254.94C55.3409 255.46 55.4276 255.913 55.6009 256.3C55.7876 256.673 56.0543 256.96 56.4009 257.16C56.7476 257.36 57.1543 257.46 57.6209 257.46C58.3276 257.46 58.8809 257.24 59.2809 256.8C59.6809 256.347 59.8809 255.727 59.8809 254.94V249.5H61.6809V255.02C61.6809 255.847 61.5076 256.573 61.1609 257.2C60.8143 257.827 60.3343 258.32 59.7209 258.68C59.1209 259.027 58.4143 259.2 57.6009 259.2ZM68.1134 259.2C67.2334 259.2 66.4468 258.987 65.7534 258.56C65.0601 258.12 64.5068 257.527 64.0934 256.78C63.6934 256.033 63.4934 255.193 63.4934 254.26C63.4934 253.327 63.6934 252.487 64.0934 251.74C64.5068 250.993 65.0601 250.4 65.7534 249.96C66.4468 249.52 67.2334 249.3 68.1134 249.3C68.8201 249.3 69.4601 249.453 70.0334 249.76C70.6068 250.053 71.0668 250.467 71.4134 251C71.7734 251.52 71.9734 252.127 72.0134 252.82V255.68C71.9734 256.36 71.7801 256.967 71.4334 257.5C71.0868 258.033 70.6268 258.453 70.0534 258.76C69.4801 259.053 68.8334 259.2 68.1134 259.2ZM68.4134 257.5C69.0134 257.5 69.5334 257.36 69.9734 257.08C70.4268 256.8 70.7801 256.42 71.0334 255.94C71.2868 255.447 71.4134 254.887 71.4134 254.26C71.4134 253.607 71.2801 253.04 71.0134 252.56C70.7601 252.08 70.4068 251.7 69.9534 251.42C69.5134 251.14 68.9934 251 68.3934 251C67.7934 251 67.2668 251.14 66.8134 251.42C66.3601 251.7 66.0001 252.087 65.7334 252.58C65.4801 253.06 65.3534 253.613 65.3534 254.24C65.3534 254.88 65.4801 255.447 65.7334 255.94C66.0001 256.42 66.3601 256.8 66.8134 257.08C67.2801 257.36 67.8134 257.5 68.4134 257.5ZM73.1134 259H71.2934V256.44L71.6334 254.12L71.2934 251.82V244.72H73.1134V259ZM78.7541 259.2C78.2207 259.2 77.7141 259.133 77.2341 259C76.7674 258.853 76.3341 258.653 75.9341 258.4C75.5341 258.133 75.1874 257.82 74.8941 257.46L76.0541 256.3C76.4007 256.727 76.8007 257.047 77.2541 257.26C77.7074 257.46 78.2141 257.56 78.7741 257.56C79.3341 257.56 79.7674 257.467 80.0741 257.28C80.3807 257.08 80.5341 256.807 80.5341 256.46C80.5341 256.113 80.4074 255.847 80.1541 255.66C79.9141 255.46 79.6007 255.3 79.2141 255.18C78.8274 255.047 78.4141 254.92 77.9741 254.8C77.5474 254.667 77.1407 254.5 76.7541 254.3C76.3674 254.1 76.0474 253.827 75.7941 253.48C75.5541 253.133 75.4341 252.673 75.4341 252.1C75.4341 251.527 75.5741 251.033 75.8541 250.62C76.1341 250.193 76.5207 249.867 77.0141 249.64C77.5207 249.413 78.1274 249.3 78.8341 249.3C79.5807 249.3 80.2407 249.433 80.8141 249.7C81.4007 249.953 81.8807 250.34 82.2541 250.86L81.0941 252.02C80.8274 251.673 80.4941 251.407 80.0941 251.22C79.7074 251.033 79.2674 250.94 78.7741 250.94C78.2541 250.94 77.8541 251.033 77.5741 251.22C77.3074 251.393 77.1741 251.64 77.1741 251.96C77.1741 252.28 77.2941 252.527 77.5341 252.7C77.7741 252.873 78.0874 253.02 78.4741 253.14C78.8741 253.26 79.2874 253.387 79.7141 253.52C80.1407 253.64 80.5474 253.807 80.9341 254.02C81.3207 254.233 81.6341 254.52 81.8741 254.88C82.1274 255.24 82.2541 255.713 82.2541 256.3C82.2541 257.193 81.9341 257.9 81.2941 258.42C80.6674 258.94 79.8207 259.2 78.7541 259.2ZM87.2892 259.2C86.7559 259.2 86.2492 259.133 85.7692 259C85.3026 258.853 84.8692 258.653 84.4692 258.4C84.0692 258.133 83.7226 257.82 83.4292 257.46L84.5892 256.3C84.9359 256.727 85.3359 257.047 85.7892 257.26C86.2426 257.46 86.7492 257.56 87.3092 257.56C87.8692 257.56 88.3026 257.467 88.6092 257.28C88.9159 257.08 89.0692 256.807 89.0692 256.46C89.0692 256.113 88.9426 255.847 88.6892 255.66C88.4492 255.46 88.1359 255.3 87.7492 255.18C87.3626 255.047 86.9492 254.92 86.5092 254.8C86.0826 254.667 85.6759 254.5 85.2892 254.3C84.9026 254.1 84.5826 253.827 84.3292 253.48C84.0892 253.133 83.9692 252.673 83.9692 252.1C83.9692 251.527 84.1092 251.033 84.3892 250.62C84.6692 250.193 85.0559 249.867 85.5492 249.64C86.0559 249.413 86.6626 249.3 87.3692 249.3C88.1159 249.3 88.7759 249.433 89.3492 249.7C89.9359 249.953 90.4159 250.34 90.7892 250.86L89.6292 252.02C89.3626 251.673 89.0292 251.407 88.6292 251.22C88.2426 251.033 87.8026 250.94 87.3092 250.94C86.7892 250.94 86.3892 251.033 86.1092 251.22C85.8426 251.393 85.7092 251.64 85.7092 251.96C85.7092 252.28 85.8292 252.527 86.0692 252.7C86.3092 252.873 86.6226 253.02 87.0092 253.14C87.4092 253.26 87.8226 253.387 88.2492 253.52C88.6759 253.64 89.0826 253.807 89.4692 254.02C89.8559 254.233 90.1692 254.52 90.4092 254.88C90.6626 255.24 90.7892 255.713 90.7892 256.3C90.7892 257.193 90.4692 257.9 89.8292 258.42C89.2026 258.94 88.3559 259.2 87.2892 259.2ZM101.005 259.2C100.138 259.2 99.3512 258.987 98.6445 258.56C97.9379 258.12 97.3779 257.527 96.9645 256.78C96.5645 256.033 96.3645 255.193 96.3645 254.26C96.3645 253.327 96.5645 252.487 96.9645 251.74C97.3779 250.993 97.9312 250.4 98.6245 249.96C99.3312 249.52 100.125 249.3 101.005 249.3C101.725 249.3 102.365 249.453 102.925 249.76C103.498 250.053 103.958 250.467 104.305 251C104.651 251.52 104.845 252.127 104.885 252.82V255.68C104.845 256.36 104.651 256.967 104.305 257.5C103.971 258.033 103.518 258.453 102.945 258.76C102.385 259.053 101.738 259.2 101.005 259.2ZM101.305 257.5C102.198 257.5 102.918 257.2 103.465 256.6C104.011 255.987 104.285 255.207 104.285 254.26C104.285 253.607 104.158 253.04 103.905 252.56C103.665 252.067 103.318 251.687 102.865 251.42C102.411 251.14 101.885 251 101.285 251C100.685 251 100.151 251.14 99.6845 251.42C99.2312 251.7 98.8712 252.087 98.6045 252.58C98.3512 253.06 98.2245 253.613 98.2245 254.24C98.2245 254.88 98.3512 255.447 98.6045 255.94C98.8712 256.42 99.2379 256.8 99.7045 257.08C100.171 257.36 100.705 257.5 101.305 257.5ZM104.165 259V256.44L104.505 254.12L104.165 251.82V249.5H105.985V259H104.165ZM108.605 259V244.72H110.405V259H108.605ZM113.039 259V244.72H114.839V259H113.039ZM121.812 259.2C120.879 259.2 120.039 258.98 119.292 258.54C118.546 258.1 117.952 257.507 117.512 256.76C117.072 256 116.852 255.153 116.852 254.22C116.852 253.3 117.072 252.473 117.512 251.74C117.952 250.993 118.546 250.4 119.292 249.96C120.039 249.52 120.879 249.3 121.812 249.3C122.732 249.3 123.566 249.52 124.312 249.96C125.072 250.387 125.672 250.973 126.112 251.72C126.552 252.467 126.772 253.3 126.772 254.22C126.772 255.153 126.552 256 126.112 256.76C125.672 257.507 125.072 258.1 124.312 258.54C123.566 258.98 122.732 259.2 121.812 259.2ZM121.812 257.46C122.412 257.46 122.946 257.32 123.412 257.04C123.879 256.76 124.246 256.38 124.512 255.9C124.779 255.407 124.912 254.847 124.912 254.22C124.912 253.607 124.772 253.06 124.492 252.58C124.226 252.1 123.859 251.727 123.392 251.46C122.939 251.18 122.412 251.04 121.812 251.04C121.212 251.04 120.679 251.18 120.212 251.46C119.746 251.727 119.379 252.1 119.112 252.58C118.846 253.06 118.712 253.607 118.712 254.22C118.712 254.847 118.846 255.407 119.112 255.9C119.379 256.38 119.746 256.76 120.212 257.04C120.679 257.32 121.212 257.46 121.812 257.46ZM131.247 259L127.487 249.5H129.367L132.087 256.9H131.487L134.187 249.5H135.227L137.927 256.9H137.327L140.047 249.5H141.927L138.187 259H137.127L134.387 251.82H135.047L132.287 259H131.247ZM146.313 259.2C145.779 259.2 145.273 259.133 144.793 259C144.326 258.853 143.893 258.653 143.493 258.4C143.093 258.133 142.746 257.82 142.453 257.46L143.613 256.3C143.959 256.727 144.359 257.047 144.813 257.26C145.266 257.46 145.773 257.56 146.333 257.56C146.893 257.56 147.326 257.467 147.633 257.28C147.939 257.08 148.093 256.807 148.093 256.46C148.093 256.113 147.966 255.847 147.713 255.66C147.473 255.46 147.159 255.3 146.773 255.18C146.386 255.047 145.973 254.92 145.533 254.8C145.106 254.667 144.699 254.5 144.313 254.3C143.926 254.1 143.606 253.827 143.353 253.48C143.113 253.133 142.993 252.673 142.993 252.1C142.993 251.527 143.133 251.033 143.413 250.62C143.693 250.193 144.079 249.867 144.573 249.64C145.079 249.413 145.686 249.3 146.393 249.3C147.139 249.3 147.799 249.433 148.373 249.7C148.959 249.953 149.439 250.34 149.813 250.86L148.653 252.02C148.386 251.673 148.053 251.407 147.653 251.22C147.266 251.033 146.826 250.94 146.333 250.94C145.813 250.94 145.413 251.033 145.133 251.22C144.866 251.393 144.733 251.64 144.733 251.96C144.733 252.28 144.853 252.527 145.093 252.7C145.333 252.873 145.646 253.02 146.033 253.14C146.433 253.26 146.846 253.387 147.273 253.52C147.699 253.64 148.106 253.807 148.493 254.02C148.879 254.233 149.193 254.52 149.433 254.88C149.686 255.24 149.813 255.713 149.813 256.3C149.813 257.193 149.493 257.9 148.853 258.42C148.226 258.94 147.379 259.2 146.313 259.2ZM157.348 259V248.08C157.348 247.373 157.501 246.76 157.808 246.24C158.115 245.707 158.535 245.287 159.068 244.98C159.615 244.673 160.248 244.52 160.968 244.52C161.515 244.52 161.988 244.613 162.388 244.8C162.788 244.987 163.155 245.26 163.488 245.62L162.308 246.78C162.135 246.593 161.941 246.453 161.728 246.36C161.515 246.253 161.255 246.2 160.948 246.2C160.375 246.2 159.928 246.367 159.608 246.7C159.301 247.033 159.148 247.493 159.148 248.08V259H157.348ZM155.008 251.14V249.5H162.168V251.14H155.008ZM167.769 259.2C166.836 259.2 165.996 258.98 165.249 258.54C164.503 258.1 163.909 257.507 163.469 256.76C163.029 256 162.809 255.153 162.809 254.22C162.809 253.3 163.029 252.473 163.469 251.74C163.909 250.993 164.503 250.4 165.249 249.96C165.996 249.52 166.836 249.3 167.769 249.3C168.689 249.3 169.523 249.52 170.269 249.96C171.029 250.387 171.629 250.973 172.069 251.72C172.509 252.467 172.729 253.3 172.729 254.22C172.729 255.153 172.509 256 172.069 256.76C171.629 257.507 171.029 258.1 170.269 258.54C169.523 258.98 168.689 259.2 167.769 259.2ZM167.769 257.46C168.369 257.46 168.903 257.32 169.369 257.04C169.836 256.76 170.203 256.38 170.469 255.9C170.736 255.407 170.869 254.847 170.869 254.22C170.869 253.607 170.729 253.06 170.449 252.58C170.183 252.1 169.816 251.727 169.349 251.46C168.896 251.18 168.369 251.04 167.769 251.04C167.169 251.04 166.636 251.18 166.169 251.46C165.703 251.727 165.336 252.1 165.069 252.58C164.803 253.06 164.669 253.607 164.669 254.22C164.669 254.847 164.803 255.407 165.069 255.9C165.336 256.38 165.703 256.76 166.169 257.04C166.636 257.32 167.169 257.46 167.769 257.46ZM174.757 259V249.5H176.558V259H174.757ZM176.558 253.58L175.878 253.28C175.878 252.067 176.158 251.1 176.718 250.38C177.278 249.66 178.084 249.3 179.138 249.3C179.618 249.3 180.051 249.387 180.438 249.56C180.824 249.72 181.184 249.993 181.518 250.38L180.338 251.6C180.138 251.387 179.918 251.233 179.678 251.14C179.438 251.047 179.158 251 178.838 251C178.171 251 177.624 251.213 177.198 251.64C176.771 252.067 176.558 252.713 176.558 253.58ZM190.317 259.2C189.783 259.2 189.277 259.133 188.797 259C188.33 258.853 187.897 258.653 187.497 258.4C187.097 258.133 186.75 257.82 186.457 257.46L187.617 256.3C187.963 256.727 188.363 257.047 188.817 257.26C189.27 257.46 189.777 257.56 190.337 257.56C190.897 257.56 191.33 257.467 191.637 257.28C191.943 257.08 192.097 256.807 192.097 256.46C192.097 256.113 191.97 255.847 191.717 255.66C191.477 255.46 191.163 255.3 190.777 255.18C190.39 255.047 189.977 254.92 189.537 254.8C189.11 254.667 188.703 254.5 188.317 254.3C187.93 254.1 187.61 253.827 187.357 253.48C187.117 253.133 186.997 252.673 186.997 252.1C186.997 251.527 187.137 251.033 187.417 250.62C187.697 250.193 188.083 249.867 188.577 249.64C189.083 249.413 189.69 249.3 190.397 249.3C191.143 249.3 191.803 249.433 192.377 249.7C192.963 249.953 193.443 250.34 193.817 250.86L192.657 252.02C192.39 251.673 192.057 251.407 191.657 251.22C191.27 251.033 190.83 250.94 190.337 250.94C189.817 250.94 189.417 251.033 189.137 251.22C188.87 251.393 188.737 251.64 188.737 251.96C188.737 252.28 188.857 252.527 189.097 252.7C189.337 252.873 189.65 253.02 190.037 253.14C190.437 253.26 190.85 253.387 191.277 253.52C191.703 253.64 192.11 253.807 192.497 254.02C192.883 254.233 193.197 254.52 193.437 254.88C193.69 255.24 193.817 255.713 193.817 256.3C193.817 257.193 193.497 257.9 192.857 258.42C192.23 258.94 191.383 259.2 190.317 259.2ZM202.552 259V253.46C202.552 252.74 202.325 252.147 201.872 251.68C201.418 251.213 200.832 250.98 200.112 250.98C199.632 250.98 199.205 251.087 198.832 251.3C198.458 251.513 198.165 251.807 197.952 252.18C197.738 252.553 197.632 252.98 197.632 253.46L196.892 253.04C196.892 252.32 197.052 251.68 197.372 251.12C197.692 250.56 198.138 250.12 198.712 249.8C199.285 249.467 199.932 249.3 200.652 249.3C201.372 249.3 202.005 249.46 202.552 249.78C203.112 250.1 203.552 250.547 203.872 251.12C204.192 251.693 204.352 252.353 204.352 253.1V259H202.552ZM195.832 259V244.72H197.632V259H195.832ZM211.129 259.2C210.195 259.2 209.355 258.98 208.609 258.54C207.862 258.1 207.269 257.507 206.829 256.76C206.389 256 206.169 255.153 206.169 254.22C206.169 253.3 206.389 252.473 206.829 251.74C207.269 250.993 207.862 250.4 208.609 249.96C209.355 249.52 210.195 249.3 211.129 249.3C212.049 249.3 212.882 249.52 213.629 249.96C214.389 250.387 214.989 250.973 215.429 251.72C215.869 252.467 216.089 253.3 216.089 254.22C216.089 255.153 215.869 256 215.429 256.76C214.989 257.507 214.389 258.1 213.629 258.54C212.882 258.98 212.049 259.2 211.129 259.2ZM211.129 257.46C211.729 257.46 212.262 257.32 212.729 257.04C213.195 256.76 213.562 256.38 213.829 255.9C214.095 255.407 214.229 254.847 214.229 254.22C214.229 253.607 214.089 253.06 213.809 252.58C213.542 252.1 213.175 251.727 212.709 251.46C212.255 251.18 211.729 251.04 211.129 251.04C210.529 251.04 209.995 251.18 209.529 251.46C209.062 251.727 208.695 252.1 208.429 252.58C208.162 253.06 208.029 253.607 208.029 254.22C208.029 254.847 208.162 255.407 208.429 255.9C208.695 256.38 209.062 256.76 209.529 257.04C209.995 257.32 210.529 257.46 211.129 257.46ZM223.117 259.2C222.397 259.2 221.744 259.053 221.157 258.76C220.584 258.453 220.124 258.033 219.777 257.5C219.43 256.967 219.237 256.36 219.197 255.68V252.82C219.237 252.127 219.43 251.52 219.777 251C220.137 250.467 220.604 250.053 221.177 249.76C221.764 249.453 222.41 249.3 223.117 249.3C223.984 249.3 224.764 249.52 225.457 249.96C226.164 250.4 226.717 250.993 227.117 251.74C227.517 252.487 227.717 253.327 227.717 254.26C227.717 255.193 227.517 256.033 227.117 256.78C226.717 257.527 226.164 258.12 225.457 258.56C224.764 258.987 223.984 259.2 223.117 259.2ZM222.817 257.5C223.417 257.5 223.944 257.36 224.397 257.08C224.85 256.8 225.21 256.42 225.477 255.94C225.744 255.447 225.877 254.88 225.877 254.24C225.877 253.613 225.744 253.053 225.477 252.56C225.21 252.067 224.85 251.687 224.397 251.42C223.944 251.14 223.424 251 222.837 251C222.237 251 221.71 251.14 221.257 251.42C220.804 251.687 220.45 252.067 220.197 252.56C219.944 253.053 219.817 253.62 219.817 254.26C219.817 254.887 219.937 255.447 220.177 255.94C220.43 256.42 220.784 256.8 221.237 257.08C221.704 257.36 222.23 257.5 222.817 257.5ZM218.117 262.98V249.5H219.917V252L219.577 254.3L219.917 256.62V262.98H218.117ZM234.758 259.2C234.038 259.2 233.384 259.053 232.798 258.76C232.224 258.453 231.764 258.033 231.418 257.5C231.071 256.967 230.878 256.36 230.838 255.68V252.82C230.878 252.127 231.071 251.52 231.418 251C231.778 250.467 232.244 250.053 232.818 249.76C233.404 249.453 234.051 249.3 234.758 249.3C235.624 249.3 236.404 249.52 237.098 249.96C237.804 250.4 238.358 250.993 238.758 251.74C239.158 252.487 239.358 253.327 239.358 254.26C239.358 255.193 239.158 256.033 238.758 256.78C238.358 257.527 237.804 258.12 237.098 258.56C236.404 258.987 235.624 259.2 234.758 259.2ZM234.458 257.5C235.058 257.5 235.584 257.36 236.038 257.08C236.491 256.8 236.851 256.42 237.118 255.94C237.384 255.447 237.518 254.88 237.518 254.24C237.518 253.613 237.384 253.053 237.118 252.56C236.851 252.067 236.491 251.687 236.038 251.42C235.584 251.14 235.064 251 234.478 251C233.878 251 233.351 251.14 232.898 251.42C232.444 251.687 232.091 252.067 231.838 252.56C231.584 253.053 231.458 253.62 231.458 254.26C231.458 254.887 231.578 255.447 231.818 255.94C232.071 256.42 232.424 256.8 232.878 257.08C233.344 257.36 233.871 257.5 234.458 257.5ZM229.757 262.98V249.5H231.558V252L231.218 254.3L231.558 256.62V262.98H229.757ZM245.798 259.2C244.851 259.2 243.998 258.987 243.238 258.56C242.478 258.12 241.878 257.527 241.438 256.78C240.998 256.033 240.778 255.187 240.778 254.24C240.778 253.307 240.991 252.467 241.418 251.72C241.858 250.973 242.445 250.387 243.178 249.96C243.925 249.52 244.758 249.3 245.678 249.3C246.558 249.3 247.331 249.5 247.998 249.9C248.678 250.3 249.205 250.853 249.578 251.56C249.965 252.267 250.158 253.067 250.158 253.96C250.158 254.093 250.151 254.24 250.138 254.4C250.125 254.547 250.098 254.72 250.058 254.92H242.038V253.42H249.098L248.438 254C248.438 253.36 248.325 252.82 248.098 252.38C247.871 251.927 247.551 251.58 247.138 251.34C246.725 251.087 246.225 250.96 245.638 250.96C245.025 250.96 244.485 251.093 244.018 251.36C243.551 251.627 243.191 252 242.938 252.48C242.685 252.96 242.558 253.527 242.558 254.18C242.558 254.847 242.691 255.433 242.958 255.94C243.225 256.433 243.605 256.82 244.098 257.1C244.591 257.367 245.158 257.5 245.798 257.5C246.331 257.5 246.818 257.407 247.258 257.22C247.711 257.033 248.098 256.753 248.418 256.38L249.578 257.56C249.125 258.093 248.565 258.5 247.898 258.78C247.245 259.06 246.545 259.2 245.798 259.2ZM252.121 259V249.5H253.921V259H252.121ZM253.921 253.58L253.241 253.28C253.241 252.067 253.521 251.1 254.081 250.38C254.641 249.66 255.447 249.3 256.501 249.3C256.981 249.3 257.414 249.387 257.801 249.56C258.187 249.72 258.547 249.993 258.881 250.38L257.701 251.6C257.501 251.387 257.281 251.233 257.041 251.14C256.801 251.047 256.521 251 256.201 251C255.534 251 254.987 251.213 254.561 251.64C254.134 252.067 253.921 252.713 253.921 253.58ZM262.953 259.2C262.42 259.2 261.913 259.133 261.433 259C260.967 258.853 260.533 258.653 260.133 258.4C259.733 258.133 259.387 257.82 259.093 257.46L260.253 256.3C260.6 256.727 261 257.047 261.453 257.26C261.907 257.46 262.413 257.56 262.973 257.56C263.533 257.56 263.967 257.467 264.273 257.28C264.58 257.08 264.733 256.807 264.733 256.46C264.733 256.113 264.607 255.847 264.353 255.66C264.113 255.46 263.8 255.3 263.413 255.18C263.027 255.047 262.613 254.92 262.173 254.8C261.747 254.667 261.34 254.5 260.953 254.3C260.567 254.1 260.247 253.827 259.993 253.48C259.753 253.133 259.633 252.673 259.633 252.1C259.633 251.527 259.773 251.033 260.053 250.62C260.333 250.193 260.72 249.867 261.213 249.64C261.72 249.413 262.327 249.3 263.033 249.3C263.78 249.3 264.44 249.433 265.013 249.7C265.6 249.953 266.08 250.34 266.453 250.86L265.293 252.02C265.027 251.673 264.693 251.407 264.293 251.22C263.907 251.033 263.467 250.94 262.973 250.94C262.453 250.94 262.053 251.033 261.773 251.22C261.507 251.393 261.373 251.64 261.373 251.96C261.373 252.28 261.493 252.527 261.733 252.7C261.973 252.873 262.287 253.02 262.673 253.14C263.073 253.26 263.487 253.387 263.913 253.52C264.34 253.64 264.747 253.807 265.133 254.02C265.52 254.233 265.833 254.52 266.073 254.88C266.327 255.24 266.453 255.713 266.453 256.3C266.453 257.193 266.133 257.9 265.493 258.42C264.867 258.94 264.02 259.2 262.953 259.2ZM274.089 259V245.52H275.889V259H274.089ZM271.749 251.14V249.5H278.229V251.14H271.749ZM284.039 259.2C283.106 259.2 282.266 258.98 281.519 258.54C280.772 258.1 280.179 257.507 279.739 256.76C279.299 256 279.079 255.153 279.079 254.22C279.079 253.3 279.299 252.473 279.739 251.74C280.179 250.993 280.772 250.4 281.519 249.96C282.266 249.52 283.106 249.3 284.039 249.3C284.959 249.3 285.792 249.52 286.539 249.96C287.299 250.387 287.899 250.973 288.339 251.72C288.779 252.467 288.999 253.3 288.999 254.22C288.999 255.153 288.779 256 288.339 256.76C287.899 257.507 287.299 258.1 286.539 258.54C285.792 258.98 284.959 259.2 284.039 259.2ZM284.039 257.46C284.639 257.46 285.172 257.32 285.639 257.04C286.106 256.76 286.472 256.38 286.739 255.9C287.006 255.407 287.139 254.847 287.139 254.22C287.139 253.607 286.999 253.06 286.719 252.58C286.452 252.1 286.086 251.727 285.619 251.46C285.166 251.18 284.639 251.04 284.039 251.04C283.439 251.04 282.906 251.18 282.439 251.46C281.972 251.727 281.606 252.1 281.339 252.58C281.072 253.06 280.939 253.607 280.939 254.22C280.939 254.847 281.072 255.407 281.339 255.9C281.606 256.38 281.972 256.76 282.439 257.04C282.906 257.32 283.439 257.46 284.039 257.46ZM299.587 259.2C298.641 259.2 297.787 258.987 297.027 258.56C296.267 258.12 295.667 257.527 295.227 256.78C294.787 256.033 294.567 255.187 294.567 254.24C294.567 253.307 294.781 252.467 295.207 251.72C295.647 250.973 296.234 250.387 296.967 249.96C297.714 249.52 298.547 249.3 299.467 249.3C300.347 249.3 301.121 249.5 301.787 249.9C302.467 250.3 302.994 250.853 303.367 251.56C303.754 252.267 303.947 253.067 303.947 253.96C303.947 254.093 303.941 254.24 303.927 254.4C303.914 254.547 303.887 254.72 303.847 254.92H295.827V253.42H302.887L302.227 254C302.227 253.36 302.114 252.82 301.887 252.38C301.661 251.927 301.341 251.58 300.927 251.34C300.514 251.087 300.014 250.96 299.427 250.96C298.814 250.96 298.274 251.093 297.807 251.36C297.341 251.627 296.981 252 296.727 252.48C296.474 252.96 296.347 253.527 296.347 254.18C296.347 254.847 296.481 255.433 296.747 255.94C297.014 256.433 297.394 256.82 297.887 257.1C298.381 257.367 298.947 257.5 299.587 257.5C300.121 257.5 300.607 257.407 301.047 257.22C301.501 257.033 301.887 256.753 302.207 256.38L303.367 257.56C302.914 258.093 302.354 258.5 301.687 258.78C301.034 259.06 300.334 259.2 299.587 259.2ZM309.95 259.2C309.083 259.2 308.297 258.987 307.59 258.56C306.883 258.12 306.323 257.527 305.91 256.78C305.51 256.033 305.31 255.193 305.31 254.26C305.31 253.327 305.51 252.487 305.91 251.74C306.323 250.993 306.877 250.4 307.57 249.96C308.277 249.52 309.07 249.3 309.95 249.3C310.67 249.3 311.31 249.453 311.87 249.76C312.443 250.053 312.903 250.467 313.25 251C313.597 251.52 313.79 252.127 313.83 252.82V255.68C313.79 256.36 313.597 256.967 313.25 257.5C312.917 258.033 312.463 258.453 311.89 258.76C311.33 259.053 310.683 259.2 309.95 259.2ZM310.25 257.5C311.143 257.5 311.863 257.2 312.41 256.6C312.957 255.987 313.23 255.207 313.23 254.26C313.23 253.607 313.103 253.04 312.85 252.56C312.61 252.067 312.263 251.687 311.81 251.42C311.357 251.14 310.83 251 310.23 251C309.63 251 309.097 251.14 308.63 251.42C308.177 251.7 307.817 252.087 307.55 252.58C307.297 253.06 307.17 253.613 307.17 254.24C307.17 254.88 307.297 255.447 307.55 255.94C307.817 256.42 308.183 256.8 308.65 257.08C309.117 257.36 309.65 257.5 310.25 257.5ZM313.11 259V256.44L313.45 254.12L313.11 251.82V249.5H314.93V259H313.11ZM317.55 259V249.5H319.35V259H317.55ZM319.35 253.58L318.67 253.28C318.67 252.067 318.95 251.1 319.51 250.38C320.07 249.66 320.877 249.3 321.93 249.3C322.41 249.3 322.844 249.387 323.23 249.56C323.617 249.72 323.977 249.993 324.31 250.38L323.13 251.6C322.93 251.387 322.71 251.233 322.47 251.14C322.23 251.047 321.95 251 321.63 251C320.964 251 320.417 251.213 319.99 251.64C319.564 252.067 319.35 252.713 319.35 253.58ZM332.337 259V253.46C332.337 252.74 332.11 252.147 331.657 251.68C331.204 251.213 330.617 250.98 329.897 250.98C329.417 250.98 328.99 251.087 328.617 251.3C328.244 251.513 327.95 251.807 327.737 252.18C327.524 252.553 327.417 252.98 327.417 253.46L326.677 253.04C326.677 252.32 326.837 251.68 327.157 251.12C327.477 250.56 327.924 250.12 328.497 249.8C329.07 249.467 329.717 249.3 330.437 249.3C331.157 249.3 331.79 249.48 332.337 249.84C332.897 250.2 333.337 250.673 333.657 251.26C333.977 251.833 334.137 252.447 334.137 253.1V259H332.337ZM325.617 259V249.5H327.417V259H325.617ZM41.34 283V273.5H43.14V283H41.34ZM42.24 271.6C41.9067 271.6 41.6333 271.493 41.42 271.28C41.2067 271.053 41.1 270.773 41.1 270.44C41.1 270.12 41.2067 269.853 41.42 269.64C41.6333 269.413 41.9067 269.3 42.24 269.3C42.5733 269.3 42.8467 269.413 43.06 269.64C43.2733 269.853 43.38 270.12 43.38 270.44C43.38 270.773 43.2733 271.053 43.06 271.28C42.8467 271.493 42.5733 271.6 42.24 271.6ZM45.7927 283V273.5H47.5927V283H45.7927ZM52.2127 283V277.26C52.2127 276.553 51.9927 276 51.5527 275.6C51.126 275.187 50.586 274.98 49.9327 274.98C49.4927 274.98 49.0993 275.073 48.7527 275.26C48.406 275.447 48.126 275.707 47.9127 276.04C47.6993 276.373 47.5927 276.773 47.5927 277.24L46.8527 276.88C46.8527 276.16 47.006 275.533 47.3127 275C47.6327 274.467 48.066 274.053 48.6127 273.76C49.1593 273.453 49.7727 273.3 50.4527 273.3C51.1193 273.3 51.7193 273.447 52.2527 273.74C52.7993 274.033 53.226 274.447 53.5327 274.98C53.8527 275.513 54.0127 276.147 54.0127 276.88V283H52.2127ZM58.6327 283V277.26C58.6327 276.553 58.4127 276 57.9727 275.6C57.546 275.187 57.0127 274.98 56.3727 274.98C55.9327 274.98 55.5327 275.073 55.1727 275.26C54.826 275.447 54.546 275.707 54.3327 276.04C54.1193 276.373 54.0127 276.773 54.0127 277.24L52.9927 276.88C53.0327 276.147 53.226 275.52 53.5727 275C53.9327 274.467 54.3927 274.053 54.9527 273.76C55.5127 273.453 56.126 273.3 56.7927 273.3C57.486 273.3 58.106 273.447 58.6527 273.74C59.1993 274.033 59.6327 274.447 59.9527 274.98C60.286 275.513 60.4527 276.153 60.4527 276.9V283H58.6327ZM62.902 283V273.5H64.702V283H62.902ZM69.322 283V277.26C69.322 276.553 69.102 276 68.662 275.6C68.2354 275.187 67.6954 274.98 67.042 274.98C66.602 274.98 66.2087 275.073 65.862 275.26C65.5154 275.447 65.2354 275.707 65.022 276.04C64.8087 276.373 64.702 276.773 64.702 277.24L63.962 276.88C63.962 276.16 64.1154 275.533 64.422 275C64.742 274.467 65.1754 274.053 65.722 273.76C66.2687 273.453 66.882 273.3 67.562 273.3C68.2287 273.3 68.8287 273.447 69.362 273.74C69.9087 274.033 70.3354 274.447 70.642 274.98C70.962 275.513 71.122 276.147 71.122 276.88V283H69.322ZM75.742 283V277.26C75.742 276.553 75.522 276 75.082 275.6C74.6554 275.187 74.122 274.98 73.482 274.98C73.042 274.98 72.642 275.073 72.282 275.26C71.9354 275.447 71.6554 275.707 71.442 276.04C71.2287 276.373 71.122 276.773 71.122 277.24L70.102 276.88C70.142 276.147 70.3354 275.52 70.682 275C71.042 274.467 71.502 274.053 72.062 273.76C72.622 273.453 73.2354 273.3 73.902 273.3C74.5954 273.3 75.2154 273.447 75.762 273.74C76.3087 274.033 76.742 274.447 77.062 274.98C77.3954 275.513 77.562 276.153 77.562 276.9V283H75.742ZM84.4114 283.2C83.4647 283.2 82.6114 282.987 81.8514 282.56C81.0914 282.12 80.4914 281.527 80.0514 280.78C79.6114 280.033 79.3914 279.187 79.3914 278.24C79.3914 277.307 79.6047 276.467 80.0314 275.72C80.4714 274.973 81.0581 274.387 81.7914 273.96C82.5381 273.52 83.3714 273.3 84.2914 273.3C85.1714 273.3 85.9447 273.5 86.6114 273.9C87.2914 274.3 87.8181 274.853 88.1914 275.56C88.5781 276.267 88.7714 277.067 88.7714 277.96C88.7714 278.093 88.7647 278.24 88.7514 278.4C88.7381 278.547 88.7114 278.72 88.6714 278.92H80.6514V277.42H87.7114L87.0514 278C87.0514 277.36 86.9381 276.82 86.7114 276.38C86.4847 275.927 86.1647 275.58 85.7514 275.34C85.3381 275.087 84.8381 274.96 84.2514 274.96C83.6381 274.96 83.0981 275.093 82.6314 275.36C82.1647 275.627 81.8047 276 81.5514 276.48C81.2981 276.96 81.1714 277.527 81.1714 278.18C81.1714 278.847 81.3047 279.433 81.5714 279.94C81.8381 280.433 82.2181 280.82 82.7114 281.1C83.2047 281.367 83.7714 281.5 84.4114 281.5C84.9447 281.5 85.4314 281.407 85.8714 281.22C86.3247 281.033 86.7114 280.753 87.0314 280.38L88.1914 281.56C87.7381 282.093 87.1781 282.5 86.5114 282.78C85.8581 283.06 85.1581 283.2 84.4114 283.2ZM94.7541 283.2C93.8741 283.2 93.0874 282.987 92.3941 282.56C91.7007 282.12 91.1474 281.527 90.7341 280.78C90.3341 280.033 90.1341 279.193 90.1341 278.26C90.1341 277.327 90.3341 276.487 90.7341 275.74C91.1474 274.993 91.7007 274.4 92.3941 273.96C93.0874 273.52 93.8741 273.3 94.7541 273.3C95.4607 273.3 96.1007 273.453 96.6741 273.76C97.2474 274.053 97.7074 274.467 98.0541 275C98.4141 275.52 98.6141 276.127 98.6541 276.82V279.68C98.6141 280.36 98.4207 280.967 98.0741 281.5C97.7274 282.033 97.2674 282.453 96.6941 282.76C96.1207 283.053 95.4741 283.2 94.7541 283.2ZM95.0541 281.5C95.6541 281.5 96.1741 281.36 96.6141 281.08C97.0674 280.8 97.4207 280.42 97.6741 279.94C97.9274 279.447 98.0541 278.887 98.0541 278.26C98.0541 277.607 97.9207 277.04 97.6541 276.56C97.4007 276.08 97.0474 275.7 96.5941 275.42C96.1541 275.14 95.6341 275 95.0341 275C94.4341 275 93.9074 275.14 93.4541 275.42C93.0007 275.7 92.6407 276.087 92.3741 276.58C92.1207 277.06 91.9941 277.613 91.9941 278.24C91.9941 278.88 92.1207 279.447 92.3741 279.94C92.6407 280.42 93.0007 280.8 93.4541 281.08C93.9207 281.36 94.4541 281.5 95.0541 281.5ZM99.7541 283H97.9341V280.44L98.2741 278.12L97.9341 275.82V268.72H99.7541V283ZM102.395 283V273.5H104.195V283H102.395ZM103.295 271.6C102.961 271.6 102.688 271.493 102.475 271.28C102.261 271.053 102.155 270.773 102.155 270.44C102.155 270.12 102.261 269.853 102.475 269.64C102.688 269.413 102.961 269.3 103.295 269.3C103.628 269.3 103.901 269.413 104.115 269.64C104.328 269.853 104.435 270.12 104.435 270.44C104.435 270.773 104.328 271.053 104.115 271.28C103.901 271.493 103.628 271.6 103.295 271.6ZM110.887 283.2C110.021 283.2 109.234 282.987 108.527 282.56C107.821 282.12 107.261 281.527 106.847 280.78C106.447 280.033 106.247 279.193 106.247 278.26C106.247 277.327 106.447 276.487 106.847 275.74C107.261 274.993 107.814 274.4 108.507 273.96C109.214 273.52 110.007 273.3 110.887 273.3C111.607 273.3 112.247 273.453 112.807 273.76C113.381 274.053 113.841 274.467 114.187 275C114.534 275.52 114.727 276.127 114.767 276.82V279.68C114.727 280.36 114.534 280.967 114.187 281.5C113.854 282.033 113.401 282.453 112.827 282.76C112.267 283.053 111.621 283.2 110.887 283.2ZM111.187 281.5C112.081 281.5 112.801 281.2 113.347 280.6C113.894 279.987 114.167 279.207 114.167 278.26C114.167 277.607 114.041 277.04 113.787 276.56C113.547 276.067 113.201 275.687 112.747 275.42C112.294 275.14 111.767 275 111.167 275C110.567 275 110.034 275.14 109.567 275.42C109.114 275.7 108.754 276.087 108.487 276.58C108.234 277.06 108.107 277.613 108.107 278.24C108.107 278.88 108.234 279.447 108.487 279.94C108.754 280.42 109.121 280.8 109.587 281.08C110.054 281.36 110.587 281.5 111.187 281.5ZM114.047 283V280.44L114.387 278.12L114.047 275.82V273.5H115.867V283H114.047ZM119.909 283V269.52H121.709V283H119.909ZM117.569 275.14V273.5H124.049V275.14H117.569ZM129.919 283.2C128.973 283.2 128.119 282.987 127.359 282.56C126.599 282.12 125.999 281.527 125.559 280.78C125.119 280.033 124.899 279.187 124.899 278.24C124.899 277.307 125.113 276.467 125.539 275.72C125.979 274.973 126.566 274.387 127.299 273.96C128.046 273.52 128.879 273.3 129.799 273.3C130.679 273.3 131.453 273.5 132.119 273.9C132.799 274.3 133.326 274.853 133.699 275.56C134.086 276.267 134.279 277.067 134.279 277.96C134.279 278.093 134.273 278.24 134.259 278.4C134.246 278.547 134.219 278.72 134.179 278.92H126.159V277.42H133.219L132.559 278C132.559 277.36 132.446 276.82 132.219 276.38C131.993 275.927 131.673 275.58 131.259 275.34C130.846 275.087 130.346 274.96 129.759 274.96C129.146 274.96 128.606 275.093 128.139 275.36C127.673 275.627 127.313 276 127.059 276.48C126.806 276.96 126.679 277.527 126.679 278.18C126.679 278.847 126.813 279.433 127.079 279.94C127.346 280.433 127.726 280.82 128.219 281.1C128.713 281.367 129.279 281.5 129.919 281.5C130.453 281.5 130.939 281.407 131.379 281.22C131.833 281.033 132.219 280.753 132.539 280.38L133.699 281.56C133.246 282.093 132.686 282.5 132.019 282.78C131.366 283.06 130.666 283.2 129.919 283.2ZM144.742 283.2C143.809 283.2 142.962 282.98 142.202 282.54C141.455 282.1 140.862 281.507 140.422 280.76C139.995 280 139.782 279.16 139.782 278.24C139.782 277.307 139.995 276.467 140.422 275.72C140.862 274.973 141.455 274.387 142.202 273.96C142.962 273.52 143.809 273.3 144.742 273.3C145.475 273.3 146.155 273.44 146.782 273.72C147.409 273.987 147.949 274.38 148.402 274.9L147.202 276.1C146.909 275.753 146.549 275.493 146.122 275.32C145.709 275.133 145.249 275.04 144.742 275.04C144.142 275.04 143.609 275.18 143.142 275.46C142.675 275.727 142.309 276.1 142.042 276.58C141.775 277.06 141.642 277.613 141.642 278.24C141.642 278.867 141.775 279.42 142.042 279.9C142.309 280.38 142.675 280.76 143.142 281.04C143.609 281.32 144.142 281.46 144.742 281.46C145.249 281.46 145.709 281.373 146.122 281.2C146.549 281.013 146.915 280.747 147.222 280.4L148.402 281.6C147.962 282.107 147.422 282.5 146.782 282.78C146.155 283.06 145.475 283.2 144.742 283.2ZM154.032 283.2C153.165 283.2 152.379 282.987 151.672 282.56C150.965 282.12 150.405 281.527 149.992 280.78C149.592 280.033 149.392 279.193 149.392 278.26C149.392 277.327 149.592 276.487 149.992 275.74C150.405 274.993 150.959 274.4 151.652 273.96C152.359 273.52 153.152 273.3 154.032 273.3C154.752 273.3 155.392 273.453 155.952 273.76C156.525 274.053 156.985 274.467 157.332 275C157.679 275.52 157.872 276.127 157.912 276.82V279.68C157.872 280.36 157.679 280.967 157.332 281.5C156.999 282.033 156.545 282.453 155.972 282.76C155.412 283.053 154.765 283.2 154.032 283.2ZM154.332 281.5C155.225 281.5 155.945 281.2 156.492 280.6C157.039 279.987 157.312 279.207 157.312 278.26C157.312 277.607 157.185 277.04 156.932 276.56C156.692 276.067 156.345 275.687 155.892 275.42C155.439 275.14 154.912 275 154.312 275C153.712 275 153.179 275.14 152.712 275.42C152.259 275.7 151.899 276.087 151.632 276.58C151.379 277.06 151.252 277.613 151.252 278.24C151.252 278.88 151.379 279.447 151.632 279.94C151.899 280.42 152.265 280.8 152.732 281.08C153.199 281.36 153.732 281.5 154.332 281.5ZM157.192 283V280.44L157.532 278.12L157.192 275.82V273.5H159.012V283H157.192ZM164.653 283.2C164.119 283.2 163.613 283.133 163.133 283C162.666 282.853 162.233 282.653 161.833 282.4C161.433 282.133 161.086 281.82 160.793 281.46L161.953 280.3C162.299 280.727 162.699 281.047 163.153 281.26C163.606 281.46 164.113 281.56 164.673 281.56C165.233 281.56 165.666 281.467 165.973 281.28C166.279 281.08 166.433 280.807 166.433 280.46C166.433 280.113 166.306 279.847 166.053 279.66C165.813 279.46 165.499 279.3 165.113 279.18C164.726 279.047 164.313 278.92 163.873 278.8C163.446 278.667 163.039 278.5 162.653 278.3C162.266 278.1 161.946 277.827 161.693 277.48C161.453 277.133 161.333 276.673 161.333 276.1C161.333 275.527 161.473 275.033 161.753 274.62C162.033 274.193 162.419 273.867 162.913 273.64C163.419 273.413 164.026 273.3 164.733 273.3C165.479 273.3 166.139 273.433 166.713 273.7C167.299 273.953 167.779 274.34 168.153 274.86L166.993 276.02C166.726 275.673 166.393 275.407 165.993 275.22C165.606 275.033 165.166 274.94 164.673 274.94C164.153 274.94 163.753 275.033 163.473 275.22C163.206 275.393 163.073 275.64 163.073 275.96C163.073 276.28 163.193 276.527 163.433 276.7C163.673 276.873 163.986 277.02 164.373 277.14C164.773 277.26 165.186 277.387 165.613 277.52C166.039 277.64 166.446 277.807 166.833 278.02C167.219 278.233 167.533 278.52 167.773 278.88C168.026 279.24 168.153 279.713 168.153 280.3C168.153 281.193 167.833 281.9 167.193 282.42C166.566 282.94 165.719 283.2 164.653 283.2ZM176.888 283V277.46C176.888 276.74 176.661 276.147 176.208 275.68C175.754 275.213 175.168 274.98 174.448 274.98C173.968 274.98 173.541 275.087 173.168 275.3C172.794 275.513 172.501 275.807 172.288 276.18C172.074 276.553 171.968 276.98 171.968 277.46L171.228 277.04C171.228 276.32 171.388 275.68 171.708 275.12C172.028 274.56 172.474 274.12 173.048 273.8C173.621 273.467 174.268 273.3 174.988 273.3C175.708 273.3 176.341 273.46 176.888 273.78C177.448 274.1 177.888 274.547 178.208 275.12C178.528 275.693 178.688 276.353 178.688 277.1V283H176.888ZM170.168 283V268.72H171.968V283H170.168ZM190.285 283.2C189.565 283.2 188.912 283.053 188.325 282.76C187.752 282.453 187.292 282.033 186.945 281.5C186.598 280.967 186.405 280.36 186.365 279.68V276.82C186.405 276.127 186.598 275.52 186.945 275C187.305 274.467 187.772 274.053 188.345 273.76C188.932 273.453 189.578 273.3 190.285 273.3C191.152 273.3 191.932 273.52 192.625 273.96C193.332 274.4 193.885 274.993 194.285 275.74C194.685 276.487 194.885 277.327 194.885 278.26C194.885 279.193 194.685 280.033 194.285 280.78C193.885 281.527 193.332 282.12 192.625 282.56C191.932 282.987 191.152 283.2 190.285 283.2ZM189.985 281.5C190.585 281.5 191.112 281.36 191.565 281.08C192.018 280.8 192.378 280.42 192.645 279.94C192.912 279.447 193.045 278.88 193.045 278.24C193.045 277.613 192.912 277.053 192.645 276.56C192.378 276.067 192.018 275.687 191.565 275.42C191.112 275.14 190.592 275 190.005 275C189.405 275 188.878 275.14 188.425 275.42C187.972 275.687 187.618 276.067 187.365 276.56C187.112 277.053 186.985 277.62 186.985 278.26C186.985 278.887 187.105 279.447 187.345 279.94C187.598 280.42 187.952 280.8 188.405 281.08C188.872 281.36 189.398 281.5 189.985 281.5ZM185.285 283V268.72H187.085V275.82L186.745 278.12L187.085 280.44V283H185.285ZM200.965 283.2C200.099 283.2 199.312 282.987 198.605 282.56C197.899 282.12 197.339 281.527 196.925 280.78C196.525 280.033 196.325 279.193 196.325 278.26C196.325 277.327 196.525 276.487 196.925 275.74C197.339 274.993 197.892 274.4 198.585 273.96C199.292 273.52 200.085 273.3 200.965 273.3C201.685 273.3 202.325 273.453 202.885 273.76C203.459 274.053 203.919 274.467 204.265 275C204.612 275.52 204.805 276.127 204.845 276.82V279.68C204.805 280.36 204.612 280.967 204.265 281.5C203.932 282.033 203.479 282.453 202.905 282.76C202.345 283.053 201.699 283.2 200.965 283.2ZM201.265 281.5C202.159 281.5 202.879 281.2 203.425 280.6C203.972 279.987 204.245 279.207 204.245 278.26C204.245 277.607 204.119 277.04 203.865 276.56C203.625 276.067 203.279 275.687 202.825 275.42C202.372 275.14 201.845 275 201.245 275C200.645 275 200.112 275.14 199.645 275.42C199.192 275.7 198.832 276.087 198.565 276.58C198.312 277.06 198.185 277.613 198.185 278.24C198.185 278.88 198.312 279.447 198.565 279.94C198.832 280.42 199.199 280.8 199.665 281.08C200.132 281.36 200.665 281.5 201.265 281.5ZM204.125 283V280.44L204.465 278.12L204.125 275.82V273.5H205.945V283H204.125ZM212.906 283.2C211.973 283.2 211.126 282.98 210.366 282.54C209.619 282.1 209.026 281.507 208.586 280.76C208.159 280 207.946 279.16 207.946 278.24C207.946 277.307 208.159 276.467 208.586 275.72C209.026 274.973 209.619 274.387 210.366 273.96C211.126 273.52 211.973 273.3 212.906 273.3C213.639 273.3 214.319 273.44 214.946 273.72C215.573 273.987 216.113 274.38 216.566 274.9L215.366 276.1C215.073 275.753 214.713 275.493 214.286 275.32C213.873 275.133 213.413 275.04 212.906 275.04C212.306 275.04 211.773 275.18 211.306 275.46C210.839 275.727 210.473 276.1 210.206 276.58C209.939 277.06 209.806 277.613 209.806 278.24C209.806 278.867 209.939 279.42 210.206 279.9C210.473 280.38 210.839 280.76 211.306 281.04C211.773 281.32 212.306 281.46 212.906 281.46C213.413 281.46 213.873 281.373 214.286 281.2C214.713 281.013 215.079 280.747 215.386 280.4L216.566 281.6C216.126 282.107 215.586 282.5 214.946 282.78C214.319 283.06 213.639 283.2 212.906 283.2ZM224.431 283L219.991 278.14L224.391 273.5H226.571L221.671 278.62L221.751 277.58L226.751 283H224.431ZM218.351 283V268.72H220.151V283H218.351ZM236.512 283.2C235.646 283.2 234.859 282.987 234.152 282.56C233.446 282.12 232.886 281.527 232.472 280.78C232.072 280.033 231.872 279.193 231.872 278.26C231.872 277.327 232.072 276.487 232.472 275.74C232.886 274.993 233.439 274.4 234.132 273.96C234.839 273.52 235.632 273.3 236.512 273.3C237.232 273.3 237.872 273.453 238.432 273.76C239.006 274.053 239.466 274.467 239.812 275C240.159 275.52 240.352 276.127 240.392 276.82V279.68C240.352 280.36 240.159 280.967 239.812 281.5C239.479 282.033 239.026 282.453 238.452 282.76C237.892 283.053 237.246 283.2 236.512 283.2ZM236.812 281.5C237.706 281.5 238.426 281.2 238.972 280.6C239.519 279.987 239.792 279.207 239.792 278.26C239.792 277.607 239.666 277.04 239.412 276.56C239.172 276.067 238.826 275.687 238.372 275.42C237.919 275.14 237.392 275 236.792 275C236.192 275 235.659 275.14 235.192 275.42C234.739 275.7 234.379 276.087 234.112 276.58C233.859 277.06 233.732 277.613 233.732 278.24C233.732 278.88 233.859 279.447 234.112 279.94C234.379 280.42 234.746 280.8 235.212 281.08C235.679 281.36 236.212 281.5 236.812 281.5ZM239.672 283V280.44L240.012 278.12L239.672 275.82V273.5H241.492V283H239.672ZM245.534 283V269.52H247.334V283H245.534ZM243.194 275.14V273.5H249.674V275.14H243.194ZM257.057 283V269.52H258.857V283H257.057ZM254.717 275.14V273.5H261.197V275.14H254.717ZM269.681 283V277.46C269.681 276.74 269.454 276.147 269.001 275.68C268.547 275.213 267.961 274.98 267.241 274.98C266.761 274.98 266.334 275.087 265.961 275.3C265.587 275.513 265.294 275.807 265.081 276.18C264.867 276.553 264.761 276.98 264.761 277.46L264.021 277.04C264.021 276.32 264.181 275.68 264.501 275.12C264.821 274.56 265.267 274.12 265.841 273.8C266.414 273.467 267.061 273.3 267.781 273.3C268.501 273.3 269.134 273.46 269.681 273.78C270.241 274.1 270.681 274.547 271.001 275.12C271.321 275.693 271.481 276.353 271.481 277.1V283H269.681ZM262.961 283V268.72H264.761V283H262.961ZM278.318 283.2C277.371 283.2 276.518 282.987 275.758 282.56C274.998 282.12 274.398 281.527 273.958 280.78C273.518 280.033 273.298 279.187 273.298 278.24C273.298 277.307 273.511 276.467 273.938 275.72C274.378 274.973 274.964 274.387 275.698 273.96C276.444 273.52 277.278 273.3 278.198 273.3C279.078 273.3 279.851 273.5 280.518 273.9C281.198 274.3 281.724 274.853 282.098 275.56C282.484 276.267 282.678 277.067 282.678 277.96C282.678 278.093 282.671 278.24 282.658 278.4C282.644 278.547 282.618 278.72 282.578 278.92H274.558V277.42H281.618L280.958 278C280.958 277.36 280.844 276.82 280.618 276.38C280.391 275.927 280.071 275.58 279.658 275.34C279.244 275.087 278.744 274.96 278.158 274.96C277.544 274.96 277.004 275.093 276.538 275.36C276.071 275.627 275.711 276 275.458 276.48C275.204 276.96 275.078 277.527 275.078 278.18C275.078 278.847 275.211 279.433 275.478 279.94C275.744 280.433 276.124 280.82 276.618 281.1C277.111 281.367 277.678 281.5 278.318 281.5C278.851 281.5 279.338 281.407 279.778 281.22C280.231 281.033 280.618 280.753 280.938 280.38L282.098 281.56C281.644 282.093 281.084 282.5 280.418 282.78C279.764 283.06 279.064 283.2 278.318 283.2ZM284.66 283V273.5H286.46V283H284.66ZM285.56 271.6C285.227 271.6 284.954 271.493 284.74 271.28C284.527 271.053 284.42 270.773 284.42 270.44C284.42 270.12 284.527 269.853 284.74 269.64C284.954 269.413 285.227 269.3 285.56 269.3C285.894 269.3 286.167 269.413 286.38 269.64C286.594 269.853 286.7 270.12 286.7 270.44C286.7 270.773 286.594 271.053 286.38 271.28C286.167 271.493 285.894 271.6 285.56 271.6ZM289.113 283V273.5H290.913V283H289.113ZM290.913 277.58L290.233 277.28C290.233 276.067 290.513 275.1 291.073 274.38C291.633 273.66 292.44 273.3 293.493 273.3C293.973 273.3 294.406 273.387 294.793 273.56C295.18 273.72 295.54 273.993 295.873 274.38L294.693 275.6C294.493 275.387 294.273 275.233 294.033 275.14C293.793 275.047 293.513 275 293.193 275C292.526 275 291.98 275.213 291.553 275.64C291.126 276.067 290.913 276.713 290.913 277.58ZM42.68 307V296.08C42.68 295.373 42.8333 294.76 43.14 294.24C43.4467 293.707 43.8667 293.287 44.4 292.98C44.9467 292.673 45.58 292.52 46.3 292.52C46.8467 292.52 47.32 292.613 47.72 292.8C48.12 292.987 48.4867 293.26 48.82 293.62L47.64 294.78C47.4667 294.593 47.2733 294.453 47.06 294.36C46.8467 294.253 46.5867 294.2 46.28 294.2C45.7067 294.2 45.26 294.367 44.94 294.7C44.6333 295.033 44.48 295.493 44.48 296.08V307H42.68ZM40.34 299.14V297.5H47.5V299.14H40.34ZM52.8014 307.2C51.9347 307.2 51.1481 306.987 50.4414 306.56C49.7347 306.12 49.1747 305.527 48.7614 304.78C48.3614 304.033 48.1614 303.193 48.1614 302.26C48.1614 301.327 48.3614 300.487 48.7614 299.74C49.1747 298.993 49.7281 298.4 50.4214 297.96C51.1281 297.52 51.9214 297.3 52.8014 297.3C53.5214 297.3 54.1614 297.453 54.7214 297.76C55.2947 298.053 55.7547 298.467 56.1014 299C56.4481 299.52 56.6414 300.127 56.6814 300.82V303.68C56.6414 304.36 56.4481 304.967 56.1014 305.5C55.7681 306.033 55.3147 306.453 54.7414 306.76C54.1814 307.053 53.5347 307.2 52.8014 307.2ZM53.1014 305.5C53.9947 305.5 54.7147 305.2 55.2614 304.6C55.8081 303.987 56.0814 303.207 56.0814 302.26C56.0814 301.607 55.9547 301.04 55.7014 300.56C55.4614 300.067 55.1147 299.687 54.6614 299.42C54.2081 299.14 53.6814 299 53.0814 299C52.4814 299 51.9481 299.14 51.4814 299.42C51.0281 299.7 50.6681 300.087 50.4014 300.58C50.1481 301.06 50.0214 301.613 50.0214 302.24C50.0214 302.88 50.1481 303.447 50.4014 303.94C50.6681 304.42 51.0347 304.8 51.5014 305.08C51.9681 305.36 52.5014 305.5 53.1014 305.5ZM55.9614 307V304.44L56.3014 302.12L55.9614 299.82V297.5H57.7814V307H55.9614ZM63.662 307L59.302 297.5H61.302L64.802 305.52H63.642L67.162 297.5H69.082L64.722 307H63.662ZM74.5858 307.2C73.6524 307.2 72.8124 306.98 72.0658 306.54C71.3191 306.1 70.7258 305.507 70.2858 304.76C69.8458 304 69.6258 303.153 69.6258 302.22C69.6258 301.3 69.8458 300.473 70.2858 299.74C70.7258 298.993 71.3191 298.4 72.0658 297.96C72.8124 297.52 73.6524 297.3 74.5858 297.3C75.5058 297.3 76.3391 297.52 77.0858 297.96C77.8458 298.387 78.4458 298.973 78.8858 299.72C79.3258 300.467 79.5458 301.3 79.5458 302.22C79.5458 303.153 79.3258 304 78.8858 304.76C78.4458 305.507 77.8458 306.1 77.0858 306.54C76.3391 306.98 75.5058 307.2 74.5858 307.2ZM74.5858 305.46C75.1858 305.46 75.7191 305.32 76.1858 305.04C76.6524 304.76 77.0191 304.38 77.2858 303.9C77.5524 303.407 77.6858 302.847 77.6858 302.22C77.6858 301.607 77.5458 301.06 77.2658 300.58C76.9991 300.1 76.6324 299.727 76.1658 299.46C75.7124 299.18 75.1858 299.04 74.5858 299.04C73.9858 299.04 73.4524 299.18 72.9858 299.46C72.5191 299.727 72.1524 300.1 71.8858 300.58C71.6191 301.06 71.4858 301.607 71.4858 302.22C71.4858 302.847 71.6191 303.407 71.8858 303.9C72.1524 304.38 72.5191 304.76 72.9858 305.04C73.4524 305.32 73.9858 305.46 74.5858 305.46ZM81.5739 307V297.5H83.3739V307H81.5739ZM83.3739 301.58L82.6939 301.28C82.6939 300.067 82.9739 299.1 83.5339 298.38C84.0939 297.66 84.9006 297.3 85.9539 297.3C86.4339 297.3 86.8672 297.387 87.2539 297.56C87.6406 297.72 88.0006 297.993 88.3339 298.38L87.1539 299.6C86.9539 299.387 86.7339 299.233 86.4939 299.14C86.2539 299.047 85.9739 299 85.6539 299C84.9872 299 84.4406 299.213 84.0139 299.64C83.5872 300.067 83.3739 300.713 83.3739 301.58ZM89.6213 307V297.5H91.4213V307H89.6213ZM90.5213 295.6C90.1879 295.6 89.9146 295.493 89.7013 295.28C89.4879 295.053 89.3813 294.773 89.3813 294.44C89.3813 294.12 89.4879 293.853 89.7013 293.64C89.9146 293.413 90.1879 293.3 90.5213 293.3C90.8546 293.3 91.1279 293.413 91.3413 293.64C91.5546 293.853 91.6613 294.12 91.6613 294.44C91.6613 294.773 91.5546 295.053 91.3413 295.28C91.1279 295.493 90.8546 295.6 90.5213 295.6ZM95.5339 307V293.52H97.3339V307H95.5339ZM93.1939 299.14V297.5H99.6739V299.14H93.1939ZM105.544 307.2C104.598 307.2 103.744 306.987 102.984 306.56C102.224 306.12 101.624 305.527 101.184 304.78C100.744 304.033 100.524 303.187 100.524 302.24C100.524 301.307 100.738 300.467 101.164 299.72C101.604 298.973 102.191 298.387 102.924 297.96C103.671 297.52 104.504 297.3 105.424 297.3C106.304 297.3 107.078 297.5 107.744 297.9C108.424 298.3 108.951 298.853 109.324 299.56C109.711 300.267 109.904 301.067 109.904 301.96C109.904 302.093 109.898 302.24 109.884 302.4C109.871 302.547 109.844 302.72 109.804 302.92H101.784V301.42H108.844L108.184 302C108.184 301.36 108.071 300.82 107.844 300.38C107.618 299.927 107.298 299.58 106.884 299.34C106.471 299.087 105.971 298.96 105.384 298.96C104.771 298.96 104.231 299.093 103.764 299.36C103.298 299.627 102.938 300 102.684 300.48C102.431 300.96 102.304 301.527 102.304 302.18C102.304 302.847 102.438 303.433 102.704 303.94C102.971 304.433 103.351 304.82 103.844 305.1C104.338 305.367 104.904 305.5 105.544 305.5C106.078 305.5 106.564 305.407 107.004 305.22C107.458 305.033 107.844 304.753 108.164 304.38L109.324 305.56C108.871 306.093 108.311 306.5 107.644 306.78C106.991 307.06 106.291 307.2 105.544 307.2ZM119.047 307.2C118.514 307.2 118.007 307.133 117.527 307C117.06 306.853 116.627 306.653 116.227 306.4C115.827 306.133 115.48 305.82 115.187 305.46L116.347 304.3C116.694 304.727 117.094 305.047 117.547 305.26C118 305.46 118.507 305.56 119.067 305.56C119.627 305.56 120.06 305.467 120.367 305.28C120.674 305.08 120.827 304.807 120.827 304.46C120.827 304.113 120.7 303.847 120.447 303.66C120.207 303.46 119.894 303.3 119.507 303.18C119.12 303.047 118.707 302.92 118.267 302.8C117.84 302.667 117.434 302.5 117.047 302.3C116.66 302.1 116.34 301.827 116.087 301.48C115.847 301.133 115.727 300.673 115.727 300.1C115.727 299.527 115.867 299.033 116.147 298.62C116.427 298.193 116.814 297.867 117.307 297.64C117.814 297.413 118.42 297.3 119.127 297.3C119.874 297.3 120.534 297.433 121.107 297.7C121.694 297.953 122.174 298.34 122.547 298.86L121.387 300.02C121.12 299.673 120.787 299.407 120.387 299.22C120 299.033 119.56 298.94 119.067 298.94C118.547 298.94 118.147 299.033 117.867 299.22C117.6 299.393 117.467 299.64 117.467 299.96C117.467 300.28 117.587 300.527 117.827 300.7C118.067 300.873 118.38 301.02 118.767 301.14C119.167 301.26 119.58 301.387 120.007 301.52C120.434 301.64 120.84 301.807 121.227 302.02C121.614 302.233 121.927 302.52 122.167 302.88C122.42 303.24 122.547 303.713 122.547 304.3C122.547 305.193 122.227 305.9 121.587 306.42C120.96 306.94 120.114 307.2 119.047 307.2ZM126.022 307V293.52H127.822V307H126.022ZM123.682 299.14V297.5H130.162V299.14H123.682ZM135.973 307.2C135.039 307.2 134.199 306.98 133.453 306.54C132.706 306.1 132.113 305.507 131.673 304.76C131.233 304 131.013 303.153 131.013 302.22C131.013 301.3 131.233 300.473 131.673 299.74C132.113 298.993 132.706 298.4 133.453 297.96C134.199 297.52 135.039 297.3 135.973 297.3C136.893 297.3 137.726 297.52 138.473 297.96C139.233 298.387 139.833 298.973 140.273 299.72C140.713 300.467 140.933 301.3 140.933 302.22C140.933 303.153 140.713 304 140.273 304.76C139.833 305.507 139.233 306.1 138.473 306.54C137.726 306.98 136.893 307.2 135.973 307.2ZM135.973 305.46C136.573 305.46 137.106 305.32 137.573 305.04C138.039 304.76 138.406 304.38 138.673 303.9C138.939 303.407 139.073 302.847 139.073 302.22C139.073 301.607 138.933 301.06 138.653 300.58C138.386 300.1 138.019 299.727 137.553 299.46C137.099 299.18 136.573 299.04 135.973 299.04C135.373 299.04 134.839 299.18 134.373 299.46C133.906 299.727 133.539 300.1 133.273 300.58C133.006 301.06 132.873 301.607 132.873 302.22C132.873 302.847 133.006 303.407 133.273 303.9C133.539 304.38 133.906 304.76 134.373 305.04C134.839 305.32 135.373 305.46 135.973 305.46ZM142.961 307V297.5H144.761V307H142.961ZM144.761 301.58L144.081 301.28C144.081 300.067 144.361 299.1 144.921 298.38C145.481 297.66 146.287 297.3 147.341 297.3C147.821 297.3 148.254 297.387 148.641 297.56C149.027 297.72 149.387 297.993 149.721 298.38L148.541 299.6C148.341 299.387 148.121 299.233 147.881 299.14C147.641 299.047 147.361 299 147.041 299C146.374 299 145.827 299.213 145.401 299.64C144.974 300.067 144.761 300.713 144.761 301.58ZM155.075 307.2C154.129 307.2 153.275 306.987 152.515 306.56C151.755 306.12 151.155 305.527 150.715 304.78C150.275 304.033 150.055 303.187 150.055 302.24C150.055 301.307 150.269 300.467 150.695 299.72C151.135 298.973 151.722 298.387 152.455 297.96C153.202 297.52 154.035 297.3 154.955 297.3C155.835 297.3 156.609 297.5 157.275 297.9C157.955 298.3 158.482 298.853 158.855 299.56C159.242 300.267 159.435 301.067 159.435 301.96C159.435 302.093 159.429 302.24 159.415 302.4C159.402 302.547 159.375 302.72 159.335 302.92H151.315V301.42H158.375L157.715 302C157.715 301.36 157.602 300.82 157.375 300.38C157.149 299.927 156.829 299.58 156.415 299.34C156.002 299.087 155.502 298.96 154.915 298.96C154.302 298.96 153.762 299.093 153.295 299.36C152.829 299.627 152.469 300 152.215 300.48C151.962 300.96 151.835 301.527 151.835 302.18C151.835 302.847 151.969 303.433 152.235 303.94C152.502 304.433 152.882 304.82 153.375 305.1C153.869 305.367 154.435 305.5 155.075 305.5C155.609 305.5 156.095 305.407 156.535 305.22C156.989 305.033 157.375 304.753 157.695 304.38L158.855 305.56C158.402 306.093 157.842 306.5 157.175 306.78C156.522 307.06 155.822 307.2 155.075 307.2ZM164.418 307.2C163.885 307.2 163.378 307.133 162.898 307C162.431 306.853 161.998 306.653 161.598 306.4C161.198 306.133 160.851 305.82 160.558 305.46L161.718 304.3C162.065 304.727 162.465 305.047 162.918 305.26C163.371 305.46 163.878 305.56 164.438 305.56C164.998 305.56 165.431 305.467 165.738 305.28C166.045 305.08 166.198 304.807 166.198 304.46C166.198 304.113 166.071 303.847 165.818 303.66C165.578 303.46 165.265 303.3 164.878 303.18C164.491 303.047 164.078 302.92 163.638 302.8C163.211 302.667 162.805 302.5 162.418 302.3C162.031 302.1 161.711 301.827 161.458 301.48C161.218 301.133 161.098 300.673 161.098 300.1C161.098 299.527 161.238 299.033 161.518 298.62C161.798 298.193 162.185 297.867 162.678 297.64C163.185 297.413 163.791 297.3 164.498 297.3C165.245 297.3 165.905 297.433 166.478 297.7C167.065 297.953 167.545 298.34 167.918 298.86L166.758 300.02C166.491 299.673 166.158 299.407 165.758 299.22C165.371 299.033 164.931 298.94 164.438 298.94C163.918 298.94 163.518 299.033 163.238 299.22C162.971 299.393 162.838 299.64 162.838 299.96C162.838 300.28 162.958 300.527 163.198 300.7C163.438 300.873 163.751 301.02 164.138 301.14C164.538 301.26 164.951 301.387 165.378 301.52C165.805 301.64 166.211 301.807 166.598 302.02C166.985 302.233 167.298 302.52 167.538 302.88C167.791 303.24 167.918 303.713 167.918 304.3C167.918 305.193 167.598 305.9 166.958 306.42C166.331 306.94 165.485 307.2 164.418 307.2ZM171.513 307.2C171.14 307.2 170.827 307.073 170.573 306.82C170.333 306.553 170.213 306.24 170.213 305.88C170.213 305.507 170.333 305.2 170.573 304.96C170.827 304.707 171.14 304.58 171.513 304.58C171.887 304.58 172.193 304.707 172.433 304.96C172.687 305.2 172.813 305.507 172.813 305.88C172.813 306.24 172.687 306.553 172.433 306.82C172.193 307.073 171.887 307.2 171.513 307.2Z" fill="black"/>
</g>
<defs>
<clipPath id="clip0_1_8413">
<rect width="547" height="362" rx="30" fill="white"/>
</clipPath>
</defs>
</svg>
